<svg xmlns="http://www.w3.org/2000/svg" width="20" height="20" viewBox="0 0 20 20">
  <g id="_3D" data-name="3D" transform="translate(0 2)">
    <rect id="Rectangle_1697" data-name="Rectangle 1697" width="20" height="20" transform="translate(0 -2)" fill="none"/>
    <path id="Union_70" data-name="Union 70" d="M-5077.807-3862.265a.639.639,0,0,1-.188-.658c.062-.281.114-.565.188-.844.042-.162,0-.229-.164-.273a11.482,11.482,0,0,1-2.264-.863,6.428,6.428,0,0,1-1.979-1.481,2.774,2.774,0,0,1,.036-3.909,6.9,6.9,0,0,1,2.392-1.64c.129-.058.178-.014.178.117v.618c.137.424-.1.7-.544.9a3.385,3.385,0,0,0-1.066.83,1.582,1.582,0,0,0-.042,2.247,4.444,4.444,0,0,0,1.285,1.011,11.108,11.108,0,0,0,2.283.924c.162.047.218,0,.247-.152q.092-.5.212-.986a.634.634,0,0,1,1.107-.322q1.138,1.144,2.264,2.307a.631.631,0,0,1-.221,1.062c-1.007.414-2.02.815-3.033,1.218a.766.766,0,0,1-.276.056A.606.606,0,0,1-5077.807-3862.265Zm5.513-1.684a.615.615,0,0,1,.471-.7c.314-.064.638-.078.956-.122a14.4,14.4,0,0,0,4.771-1.391,4.237,4.237,0,0,0,1.448-1.131,1.5,1.5,0,0,0,0-2.018,4.33,4.33,0,0,0-1.477-1.162.359.359,0,0,1-.23-.383c.016-.314.008-.631,0-.947,0-.146.048-.188.183-.126a6.764,6.764,0,0,1,2.53,1.825,3.361,3.361,0,0,1,.637,1.347v.906a4.077,4.077,0,0,1-2.166,2.636,13.771,13.771,0,0,1-4.246,1.5c-.719.148-1.445.239-2.174.314-.022,0-.045,0-.068,0A.655.655,0,0,1-5072.294-3863.949Zm-1.287-2.888-4.772-2.754a.687.687,0,0,1-.371-.639c0-1.829,0-3.658,0-5.487,0-.239.018-.25.223-.132q2.486,1.432,4.971,2.863a.332.332,0,0,1,.187.329c-.007.945,0,1.891,0,2.835v2.836c0,.163,0,.231-.056.231A.5.5,0,0,1-5073.581-3866.837Zm1.013-.1q0-1.438,0-2.878c0-.932,0-1.864,0-2.8a.386.386,0,0,1,.217-.392q2.467-1.42,4.929-2.854c.212-.122.231-.11.231.141,0,1.829,0,3.66,0,5.489a.662.662,0,0,1-.348.628q-2.421,1.4-4.843,2.8a.255.255,0,0,1-.117.044C-5072.567-3866.759-5072.568-3866.841-5072.568-3866.938Zm-.564-7.052q-2.246-1.451-4.494-2.9c-.19-.123-.19-.132,0-.255l4.255-2.741a.531.531,0,0,1,.355-.115.564.564,0,0,1,.358.115q2.161,1.368,4.322,2.733c.171.109.172.132,0,.247q-2.251,1.456-4.5,2.917a.257.257,0,0,1-.14.048A.272.272,0,0,1-5073.133-3873.99Z" transform="translate(5083 3879.101)" fill="#fff"/>
  </g>
</svg>
