<svg xmlns="http://www.w3.org/2000/svg" width="20.001" height="20" viewBox="0 0 20.001 20">
  <g id="Form_pasokhgoo" data-name="Form pasokhgoo" transform="translate(0.001 0)">
    <rect id="Rectangle_1696" data-name="Rectangle 1696" width="20" height="20" transform="translate(0 0)" fill="none"/>
    <path id="Union_73" data-name="Union 73" d="M-5065.1-4031c-.324-.008-.649,0-.975,0a1.29,1.29,0,0,1-.49-.331c-.638-.645-1.287-1.281-1.923-1.932a.261.261,0,0,0-.387-.045,4.48,4.48,0,0,1-6.714-3.188,4.488,4.488,0,0,1,3.929-5.116,4.483,4.483,0,0,1,4.954,3.909,4.369,4.369,0,0,1-.6,2.825.263.263,0,0,0,.046.389c.654.639,1.3,1.292,1.945,1.937a1.233,1.233,0,0,1,.315.476c0,.325,0,.651,0,.976,0,.083-.016.1-.094.1Zm-8.8-6.167a2.739,2.739,0,0,0,2.739,2.731,2.707,2.707,0,0,0,2.729-2.727,2.71,2.71,0,0,0-2.727-2.741h-.034A2.75,2.75,0,0,0-5073.9-4037.166Zm-2.089,3.628q-3.354,0-6.708,0a2.3,2.3,0,0,1-2.3-2.264q0-6.474,0-12.949a2.2,2.2,0,0,1,.561-1.462,2.535,2.535,0,0,1,1.364-.786h10.587l.25.068a2.289,2.289,0,0,1,1.706,2.116c.018,1.844,0,3.687.009,5.531,0,.149-.054.211-.21.206a5.246,5.246,0,0,0-.969.071,6.043,6.043,0,0,0-5.183,5.6,5.737,5.737,0,0,0,1.019,3.635c.041.061.13.125.083.2a.1.1,0,0,1-.091.039C-5075.913-4033.531-5075.954-4033.538-5075.989-4033.538Zm-1.4-5.861a.858.858,0,0,0,.508-.138.788.788,0,0,0,.326-.872.823.823,0,0,0-.831-.6c-1.391-.006-2.783,0-4.175,0a.881.881,0,0,0-.471.133.8.8,0,0,0-.353.9.79.79,0,0,0,.76.578c.715.008,1.431,0,2.148,0v0h2.086Zm-4.194-4.926a.821.821,0,0,0-.838.8.818.818,0,0,0,.821.812q3.83.006,7.659,0a.78.78,0,0,0,.583-.251.747.747,0,0,0,.166-.849.764.764,0,0,0-.753-.507c-1.273-.005-2.547,0-3.819,0h-2.183Zm-.342-3.256a.81.81,0,0,0-.483.839.814.814,0,0,0,.823.707q1.69.019,3.382,0a.826.826,0,0,0,.835-.824.815.815,0,0,0-.865-.782c-.55-.005-1.1,0-1.652,0h-1.651A.952.952,0,0,0-5081.922-4047.581Z" transform="translate(5085 4051)" fill="#fff"/>
  </g>
</svg>
