<svg xmlns="http://www.w3.org/2000/svg" width="20" height="20" viewBox="0 0 20 20">
  <g id="kartabl" transform="translate(0)">
    <rect id="Rectangle_1685" width="20" height="20" transform="translate(0)" fill="none"/>
    <path id="Icon_awesome-list-alt"
          d="M18.125,19.75H1.875A1.875,1.875,0,0,1,0,17.875V4.125A1.875,1.875,0,0,1,1.875,2.25h16.25A1.875,1.875,0,0,1,20,4.125v13.75A1.875,1.875,0,0,1,18.125,19.75ZM5,5.687A1.562,1.562,0,1,0,6.562,7.25,1.563,1.563,0,0,0,5,5.687Zm0,3.75A1.562,1.562,0,1,0,6.562,11,1.563,1.563,0,0,0,5,9.437Zm0,3.75A1.562,1.562,0,1,0,6.562,14.75,1.563,1.563,0,0,0,5,13.187ZM16.25,7.875V6.625a.469.469,0,0,0-.469-.469H7.969a.469.469,0,0,0-.469.469v1.25a.469.469,0,0,0,.469.469h7.812A.469.469,0,0,0,16.25,7.875Zm0,3.75v-1.25a.469.469,0,0,0-.469-.469H7.969a.469.469,0,0,0-.469.469v1.25a.469.469,0,0,0,.469.469h7.812A.469.469,0,0,0,16.25,11.625Zm0,3.75v-1.25a.469.469,0,0,0-.469-.469H7.969a.469.469,0,0,0-.469.469v1.25a.469.469,0,0,0,.469.469h7.812A.469.469,0,0,0,16.25,15.375Z"
          transform="translate(0 -1)" fill="#fff"/>
  </g>
</svg>
