<svg xmlns="http://www.w3.org/2000/svg" width="20" height="20" viewBox="0 0 20 20">
  <g id="Naghshe" transform="translate(0.034 0.001)">
    <rect id="Rectangle_1698" data-name="Rectangle 1698" width="20" height="20" transform="translate(-0.034 -0.001)" fill="none"/>
    <path id="Union_74" data-name="Union 74" d="M-5071.274-4082.03v-8.655c.144.165.259.288.367.418a1.913,1.913,0,0,0,1.133.706,1.806,1.806,0,0,0,1.775-.6,27.194,27.194,0,0,0,2.265-2.875c.235-.347.466-.7.7-1.046v9.243a.808.808,0,0,1-.541.533q-1.882.741-3.754,1.5c-.637.255-1.271.518-1.905.777Zm-13.215,0a.725.725,0,0,1-.511-.794q.012-5.546,0-11.093a.7.7,0,0,1,.541-.813l5.492-2.2c.059-.023.12-.043.207-.075v.222q0,6.171.005,12.34a.264.264,0,0,1-.2.292q-2.605,1.032-5.2,2.076a.343.343,0,0,0-.062.041Zm11.787-.277q-2.322-.928-4.643-1.854a.226.226,0,0,1-.168-.253q.006-6.2,0-12.4v-.2l.562.222c.722.29,1.446.577,2.166.869a.373.373,0,0,1,.2.161,16.152,16.152,0,0,0,1.933,3.3.69.69,0,0,1,.138.429q-.006,4.765,0,9.532v.246C-5072.6-4082.269-5072.65-4082.285-5072.7-4082.306Zm2.81-8.7a25.1,25.1,0,0,1-2.993-4.077,6.879,6.879,0,0,1-.8-1.935,3.709,3.709,0,0,1,.3-2.374,4.3,4.3,0,0,1,3.083-2.51,4.364,4.364,0,0,1,4.955,2.662,12.344,12.344,0,0,1,.318,1.22v.623a12.249,12.249,0,0,1-2.685,4.946c-.371.492-.778.958-1.179,1.428a.67.67,0,0,1-.507.261A.648.648,0,0,1-5069.893-4091Zm-1.381-6.636a1.888,1.888,0,0,0,1.865,1.882,1.888,1.888,0,0,0,1.877-1.87,1.886,1.886,0,0,0-1.854-1.872h-.029A1.889,1.889,0,0,0-5071.273-4097.638Z" transform="translate(5085 4102)" fill="#fff"/>
  </g>
</svg>
