<svg xmlns="http://www.w3.org/2000/svg" width="16" height="16" viewBox="0 0 16 16">
  <g id="code_nosazi" data-name="code nosazi" transform="translate(0.788)">
    <rect id="Rectangle_1962" data-name="Rectangle 1962" width="15.767" height="16" transform="translate(-0.788)" fill="none"/>
    <path id="Path_1322" data-name="Path 1322" d="M494.73,249.04a.582.582,0,0,1-.621.369q-4.545-.009-9.09,0c-.468,0-.624-.161-.624-.645,0-.654,0-1.308,0-1.963a.877.877,0,1,0-1.75.009c-.005.665,0,1.33,0,1.995,0,.438-.164.6-.6.6h-2.718c-.429,0-.6-.17-.6-.607q0-3.479,0-6.957a.665.665,0,0,1,.26-.562q2.054-1.68,4.1-3.37c.353-.29.509-.289.865,0l1.167.959c.05-.039.1-.075.146-.114l1.046-.86c.33-.272.5-.272.829,0l1.191.979c.128-.1.254-.2.378-.306.288-.236.575-.475.864-.71a.5.5,0,0,1,.73,0q2.1,1.724,4.194,3.454a1.726,1.726,0,0,1,.229.292Zm-11.2-10.233c-.051.039-.089.066-.125.1l-3.6,2.959a.291.291,0,0,0-.119.253q0,3.071,0,6.142v.168H481.7c0-.519,0-1.028,0-1.538a3.053,3.053,0,0,1,.034-.492,1.828,1.828,0,0,1,1.88-1.5,1.809,1.809,0,0,1,1.708,1.609c.049.576.023,1.158.03,1.737,0,.062,0,.123,0,.188h2c0-.04.005-.071.005-.1q0-3.127,0-6.254a.312.312,0,0,0-.111-.2c-.637-.531-1.279-1.056-1.919-1.583Zm5.574.69c.05.043.084.074.12.1.673.554,1.342,1.112,2.02,1.659a.7.7,0,0,1,.281.6c-.007,2.122,0,4.244,0,6.366v.2h2.256c0-.051.007-.093.007-.135q0-3.1,0-6.206a.309.309,0,0,0-.1-.206q-1.8-1.492-3.609-2.974c-.039-.032-.081-.062-.125-.1Zm-.789,8.924h2.253a.364.364,0,0,0,.008-.045q0-3.158,0-6.317a.255.255,0,0,0-.086-.167c-.3-.252-.6-.5-.9-.742q-1.374-1.13-2.746-2.262c-.08-.067-.134-.07-.211,0-.116.107-.242.2-.363.3l-.377.311c.718.591,1.41,1.171,2.114,1.734a.773.773,0,0,1,.313.666c-.007,2.1,0,4.2,0,6.3Z" transform="translate(-479.518 -235.431)" fill="#646464"/>
  </g>
</svg>
