<svg xmlns="http://www.w3.org/2000/svg" width="32" height="32" viewBox="0 0 32 32">
  <g id="filter" transform="translate(-52 -175)">
    <path id="Union_4" data-name="Union 4" d="M-2426,120.5V103.327a4.6,4.6,0,0,0,1.323.245A4.433,4.433,0,0,1-2429,99.212a4.43,4.43,0,0,1,4.267-4.357A4.619,4.619,0,0,0-2426,95.1l0-3.6a1.5,1.5,0,0,1,1.5-1.5,1.5,1.5,0,0,1,1.5,1.5v3.6h0a4.382,4.382,0,0,1,3,4.114,4.431,4.431,0,0,1-4.268,4.358,4.6,4.6,0,0,0,1.268-.243V120.5a1.5,1.5,0,0,1-1.5,1.5A1.5,1.5,0,0,1-2426,120.5Zm1.5-16.924h0Zm0,0h0Zm-.07,0h0Zm.14,0h0Zm-.195,0h0Zm.25,0h0Zm.053,0,.05,0ZM-2427,99.318a2.5,2.5,0,0,0,2.5,2.5,2.5,2.5,0,0,0,2.5-2.5,2.5,2.5,0,0,0-2.5-2.5A2.5,2.5,0,0,0-2427,99.318Zm3.693-4.314-.014,0Zm-.024-.006a4.578,4.578,0,0,0-.991-.146A4.611,4.611,0,0,1-2423.331,95Zm-1.394-.144.043,0Zm.39,0h0Zm-.329,0h0Zm.272,0h0Zm-.217,0h0Zm.162,0h0ZM-2437,120.5v-3.6a4.591,4.591,0,0,0,1.324.245,4.433,4.433,0,0,1-4.324-4.361,4.43,4.43,0,0,1,4.267-4.357,4.63,4.63,0,0,0-1.266.242V91.5a1.5,1.5,0,0,1,1.5-1.5,1.5,1.5,0,0,1,1.5,1.5v17.172h0a4.382,4.382,0,0,1,3,4.114,4.431,4.431,0,0,1-4.268,4.358A4.6,4.6,0,0,0-2434,116.9v3.6a1.5,1.5,0,0,1-1.5,1.5A1.5,1.5,0,0,1-2437,120.5Zm1.5-3.349h0Zm0,0h0Zm-.069,0h0Zm.139,0h0Zm-.194,0h0Zm.249,0h0Zm.053,0,.05,0Zm-2.679-4.36a2.5,2.5,0,0,0,2.5,2.5,2.5,2.5,0,0,0,2.5-2.5,2.5,2.5,0,0,0-2.5-2.5A2.5,2.5,0,0,0-2438,112.788Zm3.635-4.223h0Zm-.029-.007-.031-.008Zm-.042-.01a4.583,4.583,0,0,0-.885-.12A4.617,4.617,0,0,1-2434.437,108.547Zm-1.288-.118.044,0Zm.391,0h0Zm-.329,0h0Zm.272,0h0Zm-.217,0h0Zm.162,0h0ZM-2449,120.5V104.3a4.593,4.593,0,0,0,1.324.245,4.433,4.433,0,0,1-4.324-4.361,4.43,4.43,0,0,1,4.268-4.357,4.625,4.625,0,0,0-1.268.242V91.5a1.5,1.5,0,0,1,1.5-1.5,1.5,1.5,0,0,1,1.5,1.5v4.567h0a4.381,4.381,0,0,1,3,4.114,4.431,4.431,0,0,1-4.267,4.358A4.6,4.6,0,0,0-2446,104.3v16.2a1.5,1.5,0,0,1-1.5,1.5A1.5,1.5,0,0,1-2449,120.5Zm1.5-15.954h0Zm0,0h0Zm-.069,0h0Zm.14,0h0Zm-.194,0h0Zm.25,0h0Zm.053,0,.044,0Zm-2.68-4.361a2.5,2.5,0,0,0,2.5,2.5,2.5,2.5,0,0,0,2.5-2.5,2.5,2.5,0,0,0-2.5-2.5A2.5,2.5,0,0,0-2450,100.182Zm3.6-4.232-.012,0Zm-.039-.009-.035-.008Zm-.044-.01a4.592,4.592,0,0,0-.833-.108A4.623,4.623,0,0,1-2446.488,95.93Zm-1.241-.106.05,0Zm.4,0h0Zm-.331,0h0Zm.274,0h0Zm-.218,0h0Zm.162,0h0Z" transform="translate(2504 85)" fill="#00439e"/>
  </g>
</svg>
