<svg xmlns="http://www.w3.org/2000/svg" width="16" height="16" viewBox="0 0 16 16">
  <g id="group" transform="translate(0 -28.114)">
    <rect id="Rectangle_1967" data-name="Rectangle 1967" width="16" height="16" transform="translate(0 28.114)" fill="none"/>
    <path id="Path_1357" data-name="Path 1357" d="M130.417,35.776a3.08,3.08,0,0,0,2.742-3.331c0-1.84-.4-3.331-2.742-3.331s-2.742,1.491-2.742,3.331A3.08,3.08,0,0,0,130.417,35.776Z" transform="translate(-122.417)" fill="#646464"/>
    <path id="Path_1358" data-name="Path 1358" d="M78.959,201.392c-.051-3.2-.468-4.118-3.663-4.7a2.241,2.241,0,0,1-3,0c-3.16.572-3.6,1.471-3.661,4.592,0,.255-.007.268-.008.239,0,.055,0,.158,0,.337,0,0,.761,1.537,5.167,1.537s5.167-1.537,5.167-1.537c0-.115,0-.195,0-.249A2.022,2.022,0,0,1,78.959,201.392Z" transform="translate(-65.798 -160.665)" fill="#646464"/>
    <path id="Path_1359" data-name="Path 1359" d="M262.71,50.429a2.5,2.5,0,0,0,2.227-2.705c0-1.494-.327-2.705-2.227-2.705a3.176,3.176,0,0,0-.831.1,5.46,5.46,0,0,1,.5,2.576,4.567,4.567,0,0,1-.684,2.438A1.908,1.908,0,0,0,262.71,50.429Z" transform="translate(-250.917 -15.248)" fill="#646464"/>
    <path id="Path_1360" data-name="Path 1360" d="M288.117,184.939c-.041-2.6-.381-3.344-2.982-3.814a1.559,1.559,0,0,1-1.22.467l-.1,0a3.422,3.422,0,0,1,1.4,1.083,6.36,6.36,0,0,1,.8,3.718c1.75-.346,2.109-1.068,2.109-1.068,0-.094,0-.159,0-.2A1.546,1.546,0,0,1,288.117,184.939Z" transform="translate(-272.122 -145.736)" fill="#646464"/>
    <path id="Path_1361" data-name="Path 1361" d="M50.182,50.43a1.909,1.909,0,0,0,1.016-.3,4.568,4.568,0,0,1-.684-2.438,5.461,5.461,0,0,1,.5-2.576,3.175,3.175,0,0,0-.831-.1c-1.9,0-2.227,1.211-2.227,2.705A2.5,2.5,0,0,0,50.182,50.43Z" transform="translate(-45.976 -15.248)" fill="#646464"/>
    <path id="Path_1362" data-name="Path 1362" d="M4.31,181.588l-.1,0a1.559,1.559,0,0,1-1.22-.467c-2.6.469-2.941,1.211-2.982,3.814a1.578,1.578,0,0,1,0,.18c0,.044,0,.109,0,.2,0,0,.359.722,2.109,1.068a6.36,6.36,0,0,1,.8-3.718A3.422,3.422,0,0,1,4.31,181.588Z" transform="translate(0 -145.735)" fill="#646464"/>
  </g>
</svg>
