<svg xmlns="http://www.w3.org/2000/svg" width="16" height="16" viewBox="0 0 16 16">
  <g id="shomare_parvande" data-name="shomare parvande" transform="translate(-25 -141)">
    <rect id="Rectangle_1963" data-name="Rectangle 1963" width="16" height="16" transform="translate(25 141)" fill="none"/>
    <path id="Path_1350" data-name="Path 1350" d="M3,4.5A3.168,3.168,0,0,1,6.162,1.332h6.084A1.828,1.828,0,0,0,10.492,0H2.832A1.833,1.833,0,0,0,1,1.832V12.157a1.833,1.833,0,0,0,1.832,1.832H3Z" transform="translate(24.666 141)" fill="#646464"/>
    <path id="Path_1351" data-name="Path 1351" d="M15.492,4H7.832A1.833,1.833,0,0,0,6,5.832V15.49a1.833,1.833,0,0,0,1.832,1.832h7.66a1.833,1.833,0,0,0,1.832-1.832V5.832A1.833,1.833,0,0,0,15.492,4ZM14.16,15.324h-5a.5.5,0,0,1,0-1h5a.5.5,0,0,1,0,1Zm0-2.664h-5a.5.5,0,0,1,0-1h5a.5.5,0,0,1,0,1Zm0-2.331h-5a.5.5,0,0,1,0-1h5a.5.5,0,0,1,0,1Zm0-2.664h-5a.5.5,0,0,1,0-1h5a.5.5,0,0,1,0,1Z" transform="translate(22.997 139.664)" fill="#646464"/>
  </g>
</svg>
