<svg class="" height="512"
     style="enable-background:new 0 0 512 512" version="1.1" viewBox="0 0 512 512" width="512" x="0"
     xml:space="preserve"
     xmlns="http://www.w3.org/2000/svg" xmlns:xlink="http://www.w3.org/1999/xlink" y="0">
                  <circle cx="256" cy="256" fill="#ffffff" r="400"
                          transform="matrix(0.5,0,0,0.5,128,128)"/>
  <g transform="matrix(1,0,0,1,0,0)">
                    <path
                      class=""
                      d="M256,0C114.837,0,0,114.837,0,256s114.837,256,256,256s256-114.837,256-256S397.163,0,256,0z M356.416,228.416 c-4.16,4.16-9.621,6.251-15.083,6.251c-5.461,0-10.923-2.091-15.083-6.251l-48.917-48.917V384    c0,11.776-9.536,21.333-21.333,21.333s-21.333-9.557-21.333-21.333V179.499l-48.917,48.917c-8.341,8.341-21.824,8.341-30.165,0    s-8.341-21.824,0-30.165l85.312-85.312c1.963-1.984,4.331-3.541,6.955-4.629c5.205-2.155,11.093-2.155,16.299,0    c2.624,1.088,4.992,2.645,6.955,4.629l85.312,85.312C364.757,206.592,364.757,220.075,356.416,228.416z"
                       fill="#007cd1"/>
                  </g>
                </svg>
