<svg id="alamak" xmlns="http://www.w3.org/2000/svg" width="64" height="64" viewBox="0 0 64 64">
  <rect id="Rectangle_2" data-name="Rectangle 2" width="64" height="64" fill="none"/>
  <g id="Group_5" data-name="Group 5" transform="translate(0.104 0.585)">
    <path id="Path_23" data-name="Path 23" d="M2.959,0H0A30.85,30.85,0,0,1,.582,5.658,37.894,37.894,0,0,1,0,11.683H2.959Z" transform="translate(44.609 25.272)"/>
    <path id="Subtraction_5" data-name="Subtraction 5" d="M21.773,0A21.779,21.779,0,1,0,42.949,26.858h-4.4A17.514,17.514,0,1,1,38.488,16.5l4.42.02A21.756,21.756,0,0,0,21.773,0Zm0,3.186a1.062,1.062,0,1,1,1.062-1.062A1.063,1.063,0,0,1,21.773,3.186ZM35.667,8.942a1.062,1.062,0,1,1,.751-.311A1.056,1.056,0,0,1,35.667,8.942Zm-27.788,0A1.062,1.062,0,1,1,8.63,8.63,1.055,1.055,0,0,1,7.879,8.941ZM2.124,22.835a1.062,1.062,0,1,1,1.063-1.062A1.063,1.063,0,0,1,2.124,22.835ZM35.667,36.729a1.062,1.062,0,1,1,.751-.311A1.056,1.056,0,0,1,35.667,36.729Zm-27.788,0a1.062,1.062,0,1,1,.751-.311A1.055,1.055,0,0,1,7.879,36.729Zm13.894,5.755a1.062,1.062,0,1,1,1.062-1.062A1.063,1.063,0,0,1,21.773,42.484Zm0-35.962a15.179,15.179,0,0,0-8.527,2.6,15.3,15.3,0,0,0-5.526,6.71A15.232,15.232,0,0,0,9.127,30.3a15.295,15.295,0,0,0,6.71,5.526A15.231,15.231,0,0,0,30.3,34.42a15.295,15.295,0,0,0,5.526-6.71c.118-.28.229-.566.33-.851H31.09v-10.4l4.993.022c-.081-.219-.168-.437-.257-.649A15.238,15.238,0,0,0,21.773,6.522Zm0,22.879A7.628,7.628,0,1,1,29.4,21.773,7.636,7.636,0,0,1,21.773,29.4Z" transform="translate(43.937 52.401) rotate(180)"/>
    <path id="Subtraction_4" data-name="Subtraction 4" d="M6.19,0A6.191,6.191,0,0,0,3.781,11.893,6.191,6.191,0,0,0,8.6.486,6.151,6.151,0,0,0,6.19,0Zm0,10.68a4.49,4.49,0,1,1,4.49-4.49A4.5,4.5,0,0,1,6.19,10.68Z" transform="translate(28.219 36.815) rotate(180)"/>
    <rect id="Rectangle_6" data-name="Rectangle 6" width="2.921" height="13.631" transform="translate(48.191 24.299)"/>
    <path id="Path_24" data-name="Path 24" d="M11.683,0a24.338,24.338,0,0,1-5.73.782A27.539,27.539,0,0,1,0,0V17.482a25.55,25.55,0,0,0,5.9.82,24.066,24.066,0,0,0,5.788-.82Z" transform="translate(52.213 21.982)"/>
    <path id="Path_25" data-name="Path 25" d="M11.683,0A24.808,24.808,0,0,1,5.922.781,27.1,27.1,0,0,1,0,0V3.408a26.633,26.633,0,0,0,5.922.8,24.379,24.379,0,0,0,5.762-.8Z" transform="translate(52.213 16.636)"/>
    <path id="Path_26" data-name="Path 26" d="M11.683,0A24.562,24.562,0,0,1,5.912.795,26.542,26.542,0,0,1,0,0V3.408a34.661,34.661,0,0,0,5.912.6,32.043,32.043,0,0,0,5.772-.6Z" transform="translate(52.213 41.739)"/>
    <path id="Path_27" data-name="Path 27" d="M7.3,0A21.411,21.411,0,0,1,3.6.382,19.526,19.526,0,0,1,0,0V15.738a13.928,13.928,0,0,0,3.622.56,14.659,14.659,0,0,0,3.68-.56Z" transform="translate(54.404 0)"/>
    <path id="Path_28" data-name="Path 28" d="M7.3,0A24.147,24.147,0,0,1,3.551.352,20.177,20.177,0,0,1,0,0V16.109a26.248,26.248,0,0,0,3.543.266A31.9,31.9,0,0,0,7.3,16.109Z" transform="translate(54.404 46.84)"/>
    <path id="Path_33" data-name="Path 33" d="M11.358,0H.632A9.673,9.673,0,0,0,0,3.764,8.472,8.472,0,0,0,.632,7.479H11.358Z" transform="translate(0 27.02)"/>
  </g>
  <path id="Path_35" data-name="Path 35" d="M5.366-.347A4.654,4.654,0,0,0,2.5-1.451,4.53,4.53,0,0,0-.25-.347L.584.338A2.71,2.71,0,0,1,2.552-.424,2.615,2.615,0,0,1,4.5.338Z" transform="translate(19.646 29.043)"/>
  <path id="Path_37" data-name="Path 37" d="M0,1.994A9.651,9.651,0,0,0,6.312,3.753a10.682,10.682,0,0,0,6.1-3.09L11.714,0A10.731,10.731,0,0,1,5.984,2.739,8.554,8.554,0,0,1,.516,1.187Z" transform="translate(29.833 27.591) rotate(-155)" fill="#fff"/>
</svg>
