<svg xmlns="http://www.w3.org/2000/svg" width="20" height="20" viewBox="0 0 20 20">
  <g id="avarez_nosazi" data-name="avarez nosazi" transform="translate(-2 -17)">
    <rect id="Rectangle_1911" data-name="Rectangle 1911" width="20" height="20" transform="translate(2 17)" fill="none"/>
    <path id="Union_82" data-name="Union 82" d="M-4259.907-3641.762a.572.572,0,0,1-.182-.821.572.572,0,0,1,.819-.126,3.584,3.584,0,0,0,3.864,0,.574.574,0,0,1,.821.126.571.571,0,0,1-.171.813,4.479,4.479,0,0,1-2.6.769A4.471,4.471,0,0,1-4259.907-3641.762Zm-8.768.761a1.621,1.621,0,0,1-1.746-1.742c0-3.789,0-6.531,0-8.891v-.433h-.292l-.177,0a1.054,1.054,0,0,1-1.053-.732,1.022,1.022,0,0,1,.407-1.189c1.48-1.122,2.9-2.195,4.228-3.189l3.753-2.829.738-.556c.108-.082.138-.1.265-.186l.2-.133a.58.58,0,0,1,.324-.119.972.972,0,0,1,.429.153l.061.031.642.482.239.178.082.062,1.126.844,6.847,5.12c.073.053.131.1.184.142a1.028,1.028,0,0,1,.369,1.142,1.046,1.046,0,0,1-.964.766c-.059,0-.123.006-.2.006h-.167c-.064,0-.129,0-.2,0v.409q0,1.033,0,2.065h-1.052v-2.444h-11.578c0,.1,0,.206-.006.291v.007a3.582,3.582,0,0,0,.013.582c.1.777-.161,1.226-.823,1.412-.011,0-.02.013-.034.03l0,.006-.032.037.043.118c.028.076.055.151.084.227.078.194.155.389.234.583l.017.044c.154.385.314.783.463,1.176a.508.508,0,0,1-.273.685.542.542,0,0,1-.218.047.516.516,0,0,1-.451-.291,2.869,2.869,0,0,1-.13-.3c-.092-.231-.184-.46-.276-.691l-.059-.146-.148-.371-.253-.633c-.1.049-.2.1-.292.148l-.017.009c-.233.119-.453.232-.685.331a.448.448,0,0,0-.312.494c.009,1.289.007,2.587,0,3.842v.024q0,.618,0,1.237c0,.529.014.794.15.938s.434.162.9.162h.04l6.938-.007v1.049l-1.482,0-5.848.008Zm-.681-8.776.115-.057c.618-.309,1.256-.627,1.9-.952a.181.181,0,0,0,.078-.129c0-.283,0-.567,0-.842v-.286h-2.09Zm7.343-10.042a.79.79,0,0,0-.525.884c.026.541.021,1.093.018,1.626v.01c0,.3,0,.638,0,.964a.326.326,0,0,1-.216.351c-.527.249-1.046.514-1.528.762a.53.53,0,0,0-.311.724.485.485,0,0,0,.452.3.747.747,0,0,0,.327-.083c.184-.089.369-.186.532-.271a10.914,10.914,0,0,1,1-.48c.671-.267.908-.636.794-1.235a.353.353,0,0,1,.025-.114l.09.045c.047.023.1.047.145.075.178.106.356.214.534.322.3.185.65.394.988.59a.7.7,0,0,0,.342.1.482.482,0,0,0,.47-.343.525.525,0,0,0-.281-.663l-.5-.3,0,0c-.518-.312-1.051-.637-1.581-.944a.4.4,0,0,1-.234-.416c.007-.134,0-.27,0-.4v-.008a3.716,3.716,0,0,1,.014-.575A.772.772,0,0,0-4262.013-3659.818Zm2.09,15.731a.556.556,0,0,1-.258-.579.538.538,0,0,1,.4-.455.582.582,0,0,1,.5.09,3.557,3.557,0,0,0,3.4.267,2.888,2.888,0,0,0,.473-.265.577.577,0,0,1,.813.122.569.569,0,0,1-.158.816,4.315,4.315,0,0,1-2.144.755c-.147.013-.3.017-.4.023A4.575,4.575,0,0,1-4259.923-3644.087Zm.955-1.885a2.791,2.791,0,0,1-.59-.4,1.6,1.6,0,0,1,.067-2.552,3.136,3.136,0,0,1,1.685-.643,3.908,3.908,0,0,1,2.227.351,1.872,1.872,0,0,1,1.11,1.414c0,.008.012.015.016.022v.372a2.09,2.09,0,0,1-1.421,1.531,3.985,3.985,0,0,1-.881.227,4.248,4.248,0,0,1-.606.045A3.544,3.544,0,0,1-4258.968-3645.973Zm.934-2.4a1.607,1.607,0,0,0-.844.452.418.418,0,0,0,0,.625,1.245,1.245,0,0,0,.289.23,2.755,2.755,0,0,0,2.048.214,1.687,1.687,0,0,0,.722-.361.465.465,0,0,0,0-.787,1.508,1.508,0,0,0-.247-.17,2.8,2.8,0,0,0-1.357-.3C-4257.548-3648.448-4257.795-3648.426-4258.035-3648.37Z" transform="translate(4274 3678)" fill="#fff"/>
  </g>
</svg>
