<svg xmlns="http://www.w3.org/2000/svg" width="20" height="20" viewBox="0 0 20 20">
  <g id="bazdid" transform="translate(0.011)">
    <rect id="Rectangle_1908" data-name="Rectangle 1908" width="20" height="20" transform="translate(-0.011)" fill="none"/>
    <path id="Union_79" data-name="Union 79" d="M-4952.362-4508c0-.124,0-.248-.006-.371a.352.352,0,0,0-.357-.341.338.338,0,0,0-.351.344c-.007.122.006.247.01.369h-1.175c.093-.213.182-.43.281-.642.23-.5.461-.994.7-1.485a.807.807,0,0,0,0-.77c-.083-.161-.156-.326-.25-.528a7.186,7.186,0,0,1,2.182.907,1.157,1.157,0,0,1,.453.712c.111.5.189,1,.279,1.5.018.1.026.206.04.308Zm-3.127,0c.095-.512.188-1.025.285-1.538.083-.435.168-.871.267-1.3a.389.389,0,0,1,.155-.217c.156-.1.329-.183.52-.285.127.269.254.531.373.794a.178.178,0,0,1-.02.128q-.573,1.212-1.148,2.421Zm-.857,0q-.2-.936-.391-1.872c-.019-.087-.031-.176-.048-.275h.976c-.141.722-.28,1.435-.419,2.147Zm-1.209,0q-.409-.888-.818-1.776c-.007-.018-.016-.035-.023-.052-.354-.752-.354-.752.08-1.511.19.1.385.2.57.316a.266.266,0,0,1,.081.163q.293,1.429.582,2.859Zm-1.948,0c0-.124.006-.248,0-.371a.349.349,0,0,0-.107-.244.348.348,0,0,0-.248-.1.339.339,0,0,0-.249.094.338.338,0,0,0-.1.246c-.007.125,0,.248,0,.371h-1.8c.092-.579.166-1.162.28-1.737a1.389,1.389,0,0,1,.775-.98,9.365,9.365,0,0,1,1.879-.7c-.1.2-.17.372-.254.539a.783.783,0,0,0,0,.733c.339.714.671,1.43,1.007,2.145Zm3.677-2.867c-.363-.009-.729,0-1.127,0,.02-.732-.623-.835-1.078-1.137.061-.2.118-.39.182-.6a1.807,1.807,0,0,0,1.268.293c.228-.006.457-.008.685,0a1.672,1.672,0,0,0,1.158-.292c.063.208.121.394.184.6-.2.1-.391.22-.594.317a.784.784,0,0,0-.481.643c-.016.124-.059.172-.183.172Zm.157-2.121c-.411-.008-.823-.006-1.234,0a.811.811,0,0,1-.571-.209q-.691-.609-1.388-1.212a.787.787,0,0,1-.286-.638c0-.243,0-.484,0-.726,0-.3-.093-.408-.395-.447a.725.725,0,0,1-.663-.572.706.706,0,0,1,.349-.767.956.956,0,0,1,.314-.1c.287-.039.391-.146.395-.43,0-.084,0-.169,0-.278h5.735c0,.111,0,.213,0,.315a.359.359,0,0,0,.375.389.73.73,0,0,1,.7.708.729.729,0,0,1-.676.731c-.305.04-.4.138-.4.443,0,.249,0,.5,0,.746a.783.783,0,0,1-.292.634q-.677.581-1.343,1.173a.87.87,0,0,1-.6.237Zm10.087-3.21c0-.083-.01-.16-.01-.235,0-1.092,0-2.186,0-3.278a1.075,1.075,0,0,0-.847-1.121,1.238,1.238,0,0,0-.272-.024c-.423,0-.848,0-1.273,0a1.084,1.084,0,0,0-1.194,1.188q0,1.619,0,3.239v.228h-2.674c.019-.055.034-.107.054-.157a1.41,1.41,0,0,0-.155-1.38.444.444,0,0,1-.086-.227q-.007-2.473,0-4.948c0-.025,0-.05.009-.088h9.3v6.8Zm-2.854-.015c0-.066-.01-.129-.01-.192q0-1.629,0-3.256c0-.378.117-.493.492-.493.417,0,.835,0,1.252,0,.259,0,.4.133.4.38,0,1.165,0,2.328,0,3.492a.631.631,0,0,1-.015.07Zm-10.7-2.864v-.7c.062,0,.118-.014.174-.014q.16,0,.321,0h.482a2.359,2.359,0,0,1,1.092.194,1.987,1.987,0,0,0,1.845-.1.77.77,0,0,1,.329-.084c.482-.009.964,0,1.464,0v.713Zm2.835-1.059a1.428,1.428,0,0,1-1.009-.426,1.431,1.431,0,0,1-.411-1.016,1.433,1.433,0,0,1,1.443-1.421,1.431,1.431,0,0,1,1.42,1.443,1.431,1.431,0,0,1-1.43,1.42Zm-.35-1.438a.37.37,0,0,0,.357.365.356.356,0,0,0,.253-.108.353.353,0,0,0,.1-.255.351.351,0,0,0-.344-.351h-.007A.363.363,0,0,0-4956.654-4521.574Zm-2.444,1.071a2.374,2.374,0,0,1,.62-1.219c.088.4.176.8.267,1.219Zm4.723,0c.09-.4.182-.8.274-1.21a2.4,2.4,0,0,1,.62,1.21Zm1.816-3.208a.339.339,0,0,1-.186-.041l5.365-4.245h.039a1.321,1.321,0,0,0,.133.133q.988.788,1.981,1.571,1.607,1.271,3.217,2.537v.039a1.079,1.079,0,0,1-.189.031Zm8.1-2.892a.178.178,0,0,1-.056-.114c0-.3,0-.6,0-.912h1.417v2.1C-4943.572-4525.9-4944.018-4526.251-4944.461-4526.605Z" transform="translate(4962 4528)" fill="#fff"/>
  </g>
</svg>
