<svg xmlns="http://www.w3.org/2000/svg" width="20.001" height="20" viewBox="0 0 20.001 20">
  <g id="list_siah" data-name="list siah" transform="translate(329 -323.591)">
    <rect id="Rectangle_1919" data-name="Rectangle 1919" width="20" height="20" transform="translate(-329 323.591)" fill="none"/>
    <path id="Union_89" data-name="Union 89" d="M-4597.24-3670.408c-.095-.1-.2-.2-.285-.3-.206-.211-.418-.431-.627-.654-.556-.6-1.114-1.207-1.657-1.808a.368.368,0,0,0-.281-.132h-.02c-.74,0-1.6,0-2.458,0-.635,0-1.206,0-1.748,0a1.685,1.685,0,0,1-1.113-.394,1.681,1.681,0,0,1-.555-1.038,1.429,1.429,0,0,1-.015-.234c0-1.129,0-9.079,0-9.994a1.837,1.837,0,0,1,.118-.653,1.6,1.6,0,0,1,.324-.524,1.6,1.6,0,0,1,.5-.358,1.8,1.8,0,0,1,.638-.158c.079,0,.156-.006.242-.006h8.865a5.043,5.043,0,0,0-.031.557,4.967,4.967,0,0,0,4.944,4.978,4.867,4.867,0,0,0,2.18-.509c0,2.172,0,4.371,0,6.533a2.389,2.389,0,0,1-.05.524,1.614,1.614,0,0,1-.577.927,1.716,1.716,0,0,1-1.061.349c-.659,0-1.323,0-1.972,0-.734,0-1.484,0-2.231-.006h-.018a.363.363,0,0,0-.282.133c-.741.813-1.5,1.637-2.252,2.451-.11.107-.226.21-.346.306Zm-1.594-9.372a1.887,1.887,0,0,0-1.333,1.485,5.21,5.21,0,0,0-.056.984c0,.13,0,.264,0,.4s0,.188.029.221.095.033.223.033h5.979v-.4c0-.287,0-.557,0-.833a2.017,2.017,0,0,0-1.394-1.889.356.356,0,0,0-.087-.01.356.356,0,0,0-.178.047,3.166,3.166,0,0,1-.729.338,2.458,2.458,0,0,1-.729.113,2.447,2.447,0,0,1-.728-.113,3.159,3.159,0,0,1-.731-.339.348.348,0,0,0-.175-.047A.365.365,0,0,0-4598.833-3679.781Zm-.087-2.149a1.825,1.825,0,0,0,1.808,1.83h0a1.818,1.818,0,0,0,1.809-1.816,1.818,1.818,0,0,0-1.8-1.826h-.007A1.82,1.82,0,0,0-4598.92-3681.93Zm6.988-.216a4.2,4.2,0,0,1-.726-.4,4.305,4.305,0,0,1-.632-.525,4.356,4.356,0,0,1-.521-.637,4.278,4.278,0,0,1-.395-.731,4.292,4.292,0,0,1-.335-1.674,4.287,4.287,0,0,1,.335-1.674,4.278,4.278,0,0,1,.395-.731,4.305,4.305,0,0,1,.521-.637,4.305,4.305,0,0,1,.632-.525,4.2,4.2,0,0,1,.726-.4,4.212,4.212,0,0,1,1.662-.338,4.218,4.218,0,0,1,1.663.338,4.271,4.271,0,0,1,.726.4,4.323,4.323,0,0,1,.631.525,4.315,4.315,0,0,1,.522.637,4.271,4.271,0,0,1,.393.731,4.289,4.289,0,0,1,.336,1.674,4.293,4.293,0,0,1-.336,1.674,4.271,4.271,0,0,1-.393.731,4.366,4.366,0,0,1-.522.637,4.323,4.323,0,0,1-.631.525,4.271,4.271,0,0,1-.726.4,4.218,4.218,0,0,1-1.663.338A4.212,4.212,0,0,1-4591.933-3682.146Zm1.662-.913a3.043,3.043,0,0,0,3.029-3.05,3.045,3.045,0,0,0-.616-1.841l-3.795,4.554A2.993,2.993,0,0,0-4590.271-3683.059Zm-3.028-3.05a3.046,3.046,0,0,0,.615,1.841l3.795-4.554a2.991,2.991,0,0,0-1.382-.336A3.042,3.042,0,0,0-4593.3-3686.109Z" transform="translate(4277 4014)" fill="#fff"/>
  </g>
</svg>
