<svg xmlns="http://www.w3.org/2000/svg" width="20.001" height="20" viewBox="0 0 20.001 20">
  <g id="Daramad" transform="translate(0.001)">
    <rect id="Rectangle_1686" data-name="Rectangle 1686" width="20" height="19.812" fill="none"/>
    <path id="Union_69" data-name="Union 69" d="M-5076.966-3835.107a20.08,20.08,0,0,1-5.981-1,5.679,5.679,0,0,1-1.586-.8,1.033,1.033,0,0,1-.464-.938c.027-.489,0-.98.007-1.471a.314.314,0,0,1,.045-.23,3.456,3.456,0,0,0,1.587,1.066.273.273,0,0,1,.2.305c-.01.3,0,.606,0,.91,0,.221.112.35.281.344s.261-.125.267-.341c0-.251.006-.5,0-.755,0-.137.032-.186.179-.148.338.091.339.084.339.435s0,.709,0,1.064c0,.276.136.425.365.424s.352-.144.357-.41c0-.336.008-.673,0-1.008,0-.172.038-.25.229-.213.721.135,1.45.225,2.18.289.489.043.98.083,1.47.1.956.026,1.914.052,2.87,0a21.494,21.494,0,0,0,5.486-.855,4.7,4.7,0,0,0,1.461-.707,1.751,1.751,0,0,0,.414-.477c.068.07.041.146.041.21,0,.51-.018,1.021.009,1.53a1.021,1.021,0,0,1-.483.927,5.772,5.772,0,0,1-1.6.782,19.053,19.053,0,0,1-3.848.831,22.407,22.407,0,0,1-2.747.159Q-5076.428-3835.087-5076.966-3835.107Zm-5.38-3.863a6.164,6.164,0,0,1-2.1-.872,1.4,1.4,0,0,1-.135-.106.814.814,0,0,1,.047-1.4,3.474,3.474,0,0,1,.844-.491c.094-.041.146-.022.163.08a1,1,0,0,0,.466.637,5.7,5.7,0,0,0,1.722.828,20.359,20.359,0,0,0,3.8.762,28.049,28.049,0,0,0,4.166.187,19.805,19.805,0,0,0,4.012-.552,13.378,13.378,0,0,0,1.9-.584c.06-.025.138-.091.193-.024s-.01.135-.043.194a1.873,1.873,0,0,1-.814.712,8.928,8.928,0,0,1-2.339.777,22.89,22.89,0,0,1-3.1.435c-.827.064-1.657.089-2.468.107A26.613,26.613,0,0,1-5082.346-3838.97Zm6.674-1.1a19.183,19.183,0,0,1-5.784-1.126,3.836,3.836,0,0,1-1.381-.814.822.822,0,0,1-.259-.62c.01-.542,0-1.085,0-1.628v-.19c.032,0,.052-.006.055,0a2.685,2.685,0,0,0,1.386.981,13.363,13.363,0,0,0,2.966.741,29.7,29.7,0,0,0,4.981.312,28.758,28.758,0,0,0,4.513-.4c.223-.04.248-.021.249.2,0,.329,0,.659,0,.988,0,.276.138.434.357.437s.364-.168.365-.449c0-.387,0-.775,0-1.161a.4.4,0,0,1,.456-.327c.074.026.058.093.058.148,0,.2,0,.4,0,.6,0,.059,0,.117,0,.175.01.208.112.332.273.333s.272-.123.274-.329c.006-.31.01-.622,0-.93a.27.27,0,0,1,.2-.3,4.614,4.614,0,0,0,1.268-.711c.129-.107.2-.269.35-.351q0,1.045,0,2.093a2.035,2.035,0,0,1-.984.886,11.141,11.141,0,0,1-2.935.981,22.749,22.749,0,0,1-3.375.437c-.619.037-1.239.063-1.858.063C-5074.883-3840.037-5075.278-3840.048-5075.672-3840.073Zm.7-3.186a23.565,23.565,0,0,1-5.679-.73,6.012,6.012,0,0,1-1.845-.781,1.47,1.47,0,0,1-.5-.53c-.028-.054-.078-.123-.024-.177s.108,0,.16.021a16.029,16.029,0,0,0,3.137.849,22.6,22.6,0,0,0,2.736.3,24.225,24.225,0,0,0,3.307-.091,21.038,21.038,0,0,0,4.807-.883,5.081,5.081,0,0,0,1.783-.913.869.869,0,0,0,.328-.507c.015-.084.045-.154.153-.1a2.749,2.749,0,0,1,1.09.73,2.373,2.373,0,0,1,.176.3v.387a2.091,2.091,0,0,1-1.123.946,11.779,11.779,0,0,1-3.056.842,28.352,28.352,0,0,1-4.573.356Q-5074.53-3843.246-5074.97-3843.258Zm-7.005-2.6a7.093,7.093,0,0,1-2.329-1.007,1.05,1.05,0,0,1-.5-.961c.025-.5.006-.994.006-1.49,0-.069,0-.139,0-.208a4.145,4.145,0,0,0,2.413,1.318,18.222,18.222,0,0,0,3.427.6,29.956,29.956,0,0,0,3.479.142,28.369,28.369,0,0,0,4.588-.41c.233-.043.249-.028.25.216,0,.331,0,.66,0,.989,0,.258.12.4.328.419.232.015.366-.1.4-.37.043-.4.011-.813.019-1.22a.379.379,0,0,1,.435-.342c.087.022.075.1.077.157,0,.251,0,.5,0,.755,0,.223.107.354.272.348s.254-.133.256-.343c0-.31.008-.619,0-.929a.256.256,0,0,1,.2-.286,4.866,4.866,0,0,0,1.007-.513,1.988,1.988,0,0,0,.5-.447c.027-.036.051-.092.1-.078s.046.084.05.134,0,.089,0,.135a10.6,10.6,0,0,0,.008,1.142,1.349,1.349,0,0,1-.794,1.41,10.147,10.147,0,0,1-2.852,1.04,23.44,23.44,0,0,1-3.806.513q-.828.05-1.651.051A22.005,22.005,0,0,1-5081.975-3845.856Zm5.305-2.476a24.564,24.564,0,0,1-5.439-.661,6.167,6.167,0,0,1-2.149-.889c-.021-.015-.042-.03-.062-.046a.835.835,0,0,1,.019-1.49,5.8,5.8,0,0,1,2.029-.877,19.73,19.73,0,0,1,3.145-.549,27.564,27.564,0,0,1,3.088-.154,26.833,26.833,0,0,1,5.694.508,8.975,8.975,0,0,1,2.463.822,2.349,2.349,0,0,1,.634.493.72.72,0,0,1,0,1.027,3.357,3.357,0,0,1-1.39.827,15.541,15.541,0,0,1-3.487.772,29.884,29.884,0,0,1-3.712.229Q-5076.253-3848.321-5076.67-3848.332Z" transform="translate(5085 3855.087)" fill="#fff"/>
  </g>
</svg>
