<svg xmlns="http://www.w3.org/2000/svg" width="20.226" height="20.001" viewBox="0 0 20.226 20.001">
  <g id="tarikhche_va_jostojo" data-name="tarikhche va jostojo" transform="translate(0 0)">
    <rect id="Rectangle_1909" data-name="Rectangle 1909" width="20" height="20" transform="translate(0 0)" fill="none"/>
    <path id="Union_80" data-name="Union 80" d="M18.594,20l-.728-.784-.04.041h-.012a.032.032,0,0,0-.025,0c-.3.252-.366.248-.648-.033-.208-.207-.419-.41-.62-.623a.158.158,0,0,0-.217-.034,5,5,0,0,1-4.907-.238.377.377,0,0,0-.253-.022,9.026,9.026,0,0,1-6.435-.823,9.53,9.53,0,0,1-1.322-.878,6.7,6.7,0,0,1-1.368-1.36A8.723,8.723,0,0,1,0,9.716C-.007,9.392.086,9.3.415,9.3H1.586c.539,0,.564.021.584.551a6.523,6.523,0,0,0,1.109,3.467A6.667,6.667,0,0,0,8.39,16.369c.385.036.777,0,1.182,0a5.074,5.074,0,0,1,6.2-7.056,6.649,6.649,0,0,0-.4-2.037,6.8,6.8,0,0,0-1.789-2.687c-.028-.026-.058-.052-.085-.08a8.428,8.428,0,0,0-1.016-.761,1.105,1.105,0,0,1-.156-.08A6.771,6.771,0,0,0,8,2.855a1.679,1.679,0,0,0-.167.041c.068.121.132.225.189.332a.679.679,0,0,1-.594,1.03Q5.764,4.285,4.1,4.3a.679.679,0,0,1-.619-1.039C4.019,2.29,4.558,1.325,5.116.37,5.206.216,5.4.122,5.546,0H5.9a1.12,1.12,0,0,1,.541.557c.039.075.095.142.127.22.055.131.14.139.266.107A8.333,8.333,0,0,1,10.391.74,8.822,8.822,0,0,1,17.47,6.706a8.508,8.508,0,0,1,.434,3.789.6.6,0,0,0,.059.379,4.993,4.993,0,0,1,.609,5.429.17.17,0,0,0,.048.231c.207.2.406.4.608.606.282.281.284.346.032.648-.006.008,0,.025,0,.038l-.041.041.785.726v.2A9.568,9.568,0,0,1,18.789,20ZM10.37,14.2A3.828,3.828,0,1,0,14.2,10.445,3.795,3.795,0,0,0,10.37,14.2ZM8,10.058a.263.263,0,0,0-.293-.176c-.846.006-1.692,0-2.539,0a1.632,1.632,0,0,1-.175,0,.289.289,0,0,1-.036-.57A.78.78,0,0,1,5.156,9.3c.859,0,1.718,0,2.578,0,.127,0,.21-.014.265-.158a.893.893,0,0,1,.523-.525c.141-.055.158-.136.158-.264q-.005-2.071,0-4.14a.8.8,0,0,1,.029-.249.235.235,0,0,1,.305-.172.6.6,0,0,1,.241.238c.031.045.01.127.01.192V8.538l.184.085a1.081,1.081,0,0,1-.3,2.038,1.21,1.21,0,0,1-.166.012A1.041,1.041,0,0,1,8,10.058Z" transform="translate(0.225 0.001)" fill="#fff"/>
  </g>
</svg>
