<svg xmlns="http://www.w3.org/2000/svg" width="20.001" height="20.005" viewBox="0 0 20.001 20.005">
  <g id="savabegh" transform="translate(0.392 0.005)">
    <rect id="Rectangle_1912" data-name="Rectangle 1912" width="20" height="20" transform="translate(-0.392 -0.005)" fill="none"/>
    <path id="Union_83" data-name="Union 83" d="M-4999.549-3681c-.386-.078-.779-.133-1.157-.239a5.7,5.7,0,0,1-4.031-4.7,5.7,5.7,0,0,1,4.143-6.286,5.715,5.715,0,0,1,7.089,4.382c.042.223.077.447.114.669v.9a1.535,1.535,0,0,0-.034.168,5.685,5.685,0,0,1-4.069,4.867c-.377.108-.772.159-1.159.235Zm.314-8.919a3.257,3.257,0,0,0-3.065,3.4,3.129,3.129,0,0,0,1.949,2.762,2.893,2.893,0,0,0,1.228.258.359.359,0,0,0,.386-.354.359.359,0,0,0-.364-.354c-.09-.008-.181-.014-.271-.024a2.5,2.5,0,0,1-2.124-1.793,2.5,2.5,0,0,1,.852-2.645,2.493,2.493,0,0,1,2.771-.216,2.473,2.473,0,0,1,1.278,2.161.355.355,0,0,0,.347.37.359.359,0,0,0,.359-.38,3.15,3.15,0,0,0-.032-.408,3.207,3.207,0,0,0-3.126-2.783Q-4999.14-3689.93-4999.235-3689.924Zm.988,2.589c-.168.145-.171.343,0,.55q.84,1.011,1.681,2.022a.372.372,0,0,0,.648,0q.458-.543.911-1.091c.274-.33.553-.657.819-.991a.343.343,0,0,0-.04-.5.346.346,0,0,0-.49.037,2.377,2.377,0,0,0-.164.192l-1.361,1.633c-.495-.594-.971-1.169-1.449-1.743a.455.455,0,0,0-.337-.188A.33.33,0,0,0-4998.247-3687.334Zm-6.838,3.476h-6.388a1.8,1.8,0,0,1-1.917-1.917q0-3.252,0-6.5v-6.894a1.745,1.745,0,0,1,.945-1.616,3.91,3.91,0,0,1,.579-.216h14.106c.009.009.018.021.028.025a1.794,1.794,0,0,1,1.492,1.929v6.563c-.308-.12-.587-.242-.877-.335s-.6-.162-.9-.242a.115.115,0,0,1-.013-.035,1.419,1.419,0,0,0-1.559-1.472h-3.027c-1.107,0-2.214-.009-3.322.005a1.4,1.4,0,0,0-1.368,1.256,1.367,1.367,0,0,0,1.064,1.532,7.893,7.893,0,0,0,1.477.048.327.327,0,0,0,.3-.35.35.35,0,0,0-.311-.345,1.262,1.262,0,0,0-.195-.011c-.107,0-.212,0-.319,0-.213,0-.425,0-.637,0a.691.691,0,0,1-.487-.218.685.685,0,0,1-.187-.5.7.7,0,0,1,.75-.7q3.174,0,6.349,0c.047,0,.092,0,.137,0a.667.667,0,0,1,.6.695c-.36.019-.718.012-1.072.058a6.408,6.408,0,0,0-4.24,2.325.384.384,0,0,1-.257.122c-.271.005-.542.005-.814.005-.223,0-.447,0-.669,0a1.843,1.843,0,0,0-.463.059,1.415,1.415,0,0,0-1.016,1.593,1.416,1.416,0,0,0,1.382,1.2c.152,0,.3,0,.48,0a6.349,6.349,0,0,0,.578,3.936Zm-5.633-6.681a1.426,1.426,0,0,0-.882,1.32,1.428,1.428,0,0,0,1.424,1.426,1.43,1.43,0,0,0,1.325-.877,1.425,1.425,0,0,0-.307-1.558,1.428,1.428,0,0,0-1.012-.42A1.437,1.437,0,0,0-5010.718-3690.539Zm-.882-2.613a1.426,1.426,0,0,0,1.423,1.431,1.427,1.427,0,0,0,1.432-1.422,1.428,1.428,0,0,0-1.426-1.428A1.428,1.428,0,0,0-5011.6-3693.152Zm5.731-5.351a1.428,1.428,0,0,0-1.448,1.428,1.422,1.422,0,0,0,1.45,1.424c1.517,0,3.033,0,4.551,0,.264,0,.425-.132.429-.349s-.161-.36-.437-.36h-2.265c-.756,0-1.511,0-2.266,0a.709.709,0,0,1-.741-.79.723.723,0,0,1,.794-.643q2.451,0,4.9,0c.469,0,.938,0,1.407,0a.721.721,0,0,1,.716.5.719.719,0,0,1-.685.935.354.354,0,0,0-.35.367.334.334,0,0,0,.113.252.335.335,0,0,0,.263.083,1.908,1.908,0,0,0,.584-.132,1.408,1.408,0,0,0,.794-1.563,1.41,1.41,0,0,0-1.365-1.15c-1.087-.009-2.175,0-3.261,0h-1.82Zm-5.731,1.421a1.426,1.426,0,0,0,1.42,1.432,1.427,1.427,0,0,0,1.435-1.418,1.426,1.426,0,0,0-1.421-1.432h-.007A1.426,1.426,0,0,0-5011.6-3697.083Zm5.653,8.572a.7.7,0,0,1-.65-.677.674.674,0,0,1,.609-.729c.424-.028.852-.006,1.28-.006-.2.474-.4.936-.6,1.414-.123,0-.254,0-.388,0C-5005.781-3688.5-5005.864-3688.506-5005.947-3688.511Z" transform="translate(5013 3701.005)" fill="#fff"/>
  </g>
</svg>
