<?xml version="1.0" encoding="utf-8"?>
<!-- Generator: Adobe Illustrator 24.1.2, SVG Export Plug-In . SVG Version: 6.00 Build 0)  -->
<svg version="1.1" id="Layer_1" xmlns="http://www.w3.org/2000/svg" xmlns:xlink="http://www.w3.org/1999/xlink" x="0px" y="0px"
	 viewBox="0 0 20 20" style="enable-background:new 0 0 20 20;" xml:space="preserve">
<style type="text/css">
	.st0{fill:none;}
	.st1{fill:#FFFFFF;}
</style>
<g id="tashkil_parvande" transform="translate(-1618 -297)">
	<rect id="Rectangle_1701" x="1618" y="297" class="st0" width="20" height="20"/>
	<path id="Union_93" class="st1" d="M1621.2,317C1621.2,317,1621.2,317,1621.2,317c-0.6-0.1-1-0.6-0.9-1.2c0-5.1,0-10.2,0-15.4
		c0-0.6,0.5-1.1,1.1-1.2c0.1,0,0.1,0,0.2,0c0.9,0,1.8,0,2.8,0c0.1,0,0.1,0,0.2,0v3.2h-0.8v-0.2c0-0.6,0-1.2,0-1.8
		c0-0.3-0.1-0.4-0.4-0.4c-0.3,0-0.7,0-1,0c-0.4,0-0.5,0.1-0.5,0.5c0,0.7,0,1.3,0,1.9c0,0.8,0.5,1.5,1.2,1.7c0.6,0.2,1.3,0.2,1.9,0.1
		c0.9-0.1,1.5-0.9,1.5-1.8c0-1,0-1.9,0-2.9v-0.2h5c0,0,0,0,0,0.1c0,0.8,0,1.5,0,2.3c0,0.6,0.5,1.2,1.1,1.2c0.1,0,0.1,0,0.2,0
		c0.9,0,1.8,0,2.7,0h0.2v7.1c0,2,0,3.9,0,5.9c0,0.4-0.2,0.8-0.5,1c-0.1,0.1-0.3,0.2-0.5,0.2L1621.2,317z M1633,315.6
		c-0.2,0-0.4,0.2-0.4,0.4s0.2,0.3,0.4,0.4c0.1,0,0.3,0,0.4,0l0,0c0.1,0,0.3,0,0.4,0c0.5,0,0.9-0.4,1-0.9c0-0.3,0-0.6,0-0.9
		c0-0.2-0.2-0.4-0.4-0.4c0,0,0,0,0,0c-0.2,0-0.4,0.2-0.4,0.4c0,0,0,0,0,0c0,0.2,0,0.4,0,0.6c0,0.3-0.2,0.4-0.4,0.4h-0.4
		C1633.2,315.6,1633.1,315.6,1633,315.6z M1630.5,314.9c0.1,0,0.1,0,0.2,0c0.2,0,0.3-0.1,0.3-0.3c0-0.2-0.1-0.3-0.3-0.3
		c-0.1,0-0.2,0-0.3,0h-8.1c-0.1,0-0.1,0-0.2,0c-0.2,0-0.3,0.1-0.3,0.3c0,0.2,0.2,0.4,0.5,0.4L1630.5,314.9L1630.5,314.9z
		 M1622.2,312c-0.2,0-0.4,0.2-0.4,0.4s0.2,0.3,0.4,0.3c0.1,0,0.1,0,0.2,0h11.2c0.1,0,0.2,0,0.3,0c0.2,0,0.3-0.2,0.3-0.3
		c0-0.2-0.1-0.3-0.3-0.3c-0.1,0-0.2,0-0.3,0c-3.7,0-7.5,0-11.2,0L1622.2,312C1622.3,312,1622.2,312,1622.2,312L1622.2,312z
		 M1621.8,310.3c0,0.2,0.2,0.3,0.6,0.3h11.2c0.4,0,0.6-0.1,0.6-0.4s-0.2-0.3-0.6-0.3h-11.2C1622,309.9,1621.8,310,1621.8,310.3
		L1621.8,310.3z M1628,308.5h5.6c0.1,0,0.2,0,0.3,0c0.2,0,0.3-0.2,0.3-0.3c0-0.2-0.1-0.3-0.3-0.3c-0.1,0-0.2,0-0.3,0h-11.2
		c-0.1,0-0.2,0-0.3,0c-0.2,0-0.3,0.2-0.3,0.3c0,0.2,0.1,0.3,0.3,0.3c0.1,0,0.2,0,0.3,0H1628z M1624.9,306c0,0.2,0.2,0.3,0.6,0.3h8.1
		c0.4,0,0.6-0.1,0.6-0.4s-0.2-0.3-0.6-0.3h-8.1C1625.1,305.7,1624.9,305.8,1624.9,306L1624.9,306z M1623.4,303.8
		c-0.6-0.1-1.1-0.6-1.2-1.2c0-0.7,0-1.4,0-2.2h1.2v0.2c0,0.6,0,1.1,0,1.7c0,0.3,0.1,0.5,0.5,0.5c0.2,0,0.4,0,0.6,0
		c0.3,0,0.4-0.1,0.4-0.4c0-1.3,0-2.7,0-4c0-0.3-0.1-0.4-0.4-0.4c-0.2,0-0.5,0-0.7,0c-0.3,0-0.4,0.1-0.4,0.4c0,0.2,0,0.4,0,0.6h-1.2
		c0-0.3,0-0.7,0.1-1c0.2-0.6,0.8-1,1.4-1c0.3,0,0.7,0,1,0c0.8,0,1.4,0.6,1.5,1.4c0,0.5,0,0.9,0,1.4c0,0.9,0,1.7,0,2.6
		c0,0.8-0.7,1.5-1.5,1.5c-0.1,0-0.1,0-0.2,0h-0.3C1623.9,303.8,1623.6,303.8,1623.4,303.8L1623.4,303.8z M1632.8,301.7
		c-0.3,0-0.5-0.1-0.6-0.4c0-0.7,0-1.3,0-2l3.5,2.3l0,0h-1.7C1633.6,301.7,1633.2,301.7,1632.8,301.7L1632.8,301.7z"/>
</g>
</svg>
