<?xml version="1.0" encoding="utf-8"?>
<!-- Uploaded to: SVG Repo, www.svgrepo.com, Generator: SVG Repo Mixer Tools -->
<svg fill="#000000" version="1.1" id="Layer_1" xmlns="http://www.w3.org/2000/svg" xmlns:xlink="http://www.w3.org/1999/xlink"
	 width="800px" height="800px" viewBox="0 0 245 256" enable-background="new 0 0 245 256" xml:space="preserve">
<path fill="#fff" d="M190,63.24V7h-31v27.73L122.97,1.82L1.94,110.15l18.4,20.74L39,114.04V254h167V114.08l18.36,17.85l18.89-20.22L190,63.24z
	 M172.74,218.48c-1.59,1.33-3.86,2.23-5.87,2.02c-2.02,0-4.03-0.9-5.4-2.49l-29.27-27.89c-0.21-0.47-0.68-0.9-0.9-1.37
	c-6.98,4.71-15.29,6.98-24.29,6.51c-22.07-1.33-38.74-20.22-37.37-42.29c1.33-22.07,20.23-38.69,42.3-37.37
	c22.06,1.33,38.73,20.49,37.36,42.08c-0.47,7.41-2.96,14.4-6.77,20.01c0.47,0.47,1.11,0.9,1.59,1.37l29.26,27.9
	C176.34,210.34,176.08,215.27,172.74,218.48z M111.55,123.7c-17.57-1.15-32.61,12.34-33.76,29.91
	c-1.16,17.57,12.34,32.61,29.9,33.77c17.57,1.15,32.66-12.34,33.77-29.91C142.36,139.9,129.08,124.6,111.55,123.7z"/>
</svg>
