<svg id="Avarez_senfi" data-name="Avarez senfi" xmlns="http://www.w3.org/2000/svg" width="20" height="20" viewBox="0 0 20 20">
<!--  <rect id="Rectangle_1688" data-name="Rectangle 1688" width="20" height="19.457" fill="#0057b8"/>-->
  <path id="Path_474" data-name="Path 474" d="M509.274,192h.389a.884.884,0,0,1,.38.848q-.01,7.752-.009,15.5a.562.562,0,0,0,.278.56,1.276,1.276,0,0,1,.587,1.06,10.324,10.324,0,0,1,0,1.1,1.27,1.27,0,0,1-.148.372H491v-1.671a4.14,4.14,0,0,1,.635-.876.674.674,0,0,0,.284-.6q-.008-7.739-.009-15.477a.782.782,0,0,1,.413-.822h.389a.875.875,0,0,1,.374.853c-.018.448,0,.9,0,1.341h6.576c.178-.819.58-1.226,1.237-1.266s1.061.331,1.381,1.264h2a1.3,1.3,0,0,1,1.233-1.265c.665-.031,1.1.367,1.355,1.255h2.01c0-.5.017-.967-.006-1.432A.727.727,0,0,1,509.274,192ZM493.1,200.648v4.128h6.556c.174-.843.6-1.255,1.277-1.264s1.127.4,1.314,1.266h2.006a.806.806,0,0,0,.037-.11,1.266,1.266,0,0,1,2.513-.084c.021.079.107.2.166.2.627.015,1.255.009,1.88.009v-4.14h-2c-.2.838-.6,1.23-1.264,1.246-.679.017-1.065-.34-1.35-1.249h-5.882c-.159.8-.562,1.209-1.215,1.246-.692.04-1.086-.313-1.394-1.253Zm15.753-5.258a1.09,1.09,0,0,0-.155-.031c-.518,0-1.037.01-1.555-.009-.249-.009-.324.075-.365.312a1.2,1.2,0,0,1-1.169.98,1.241,1.241,0,0,1-1.274-.909c-.033-.117-.052-.238-.075-.349h-2.021c-.148.816-.574,1.24-1.239,1.259-.718.02-1.141-.372-1.348-1.26H493.11v4.082h2.652c.216-.867.607-1.252,1.273-1.268.682-.016,1.064.34,1.348,1.265h5.881c.151-.812.57-1.235,1.235-1.264s1.087.33,1.313,1.094c.022.075.121.181.186.183.617.014,1.235.008,1.86.008C508.856,198.088,508.856,196.75,508.856,195.39ZM493.1,208.561h15.747v-2.588h-2c-.2.837-.6,1.23-1.263,1.246-.68.017-1.067-.342-1.35-1.249h-1.993c-.16.8-.562,1.209-1.214,1.246-.694.04-1.094-.317-1.395-1.255h-6.531C493.1,206.837,493.1,207.692,493.1,208.561Z" transform="translate(-491 -191.442)" fill="#fff"/>
</svg>
