<svg id="Daramad" xmlns="http://www.w3.org/2000/svg" width="20" height="19.812" viewBox="0 0 20 19.812">
  <rect id="Rectangle_1686" data-name="Rectangle 1686" width="20" height="19.812" fill="none"/>
  <path id="Union_69" data-name="Union 69" d="M-5076.828-3834.8a20.422,20.422,0,0,1-6.084-1.014,5.782,5.782,0,0,1-1.614-.816,1.051,1.051,0,0,1-.472-.954c.027-.5,0-1,.007-1.5a.318.318,0,0,1,.046-.234,3.512,3.512,0,0,0,1.614,1.084.277.277,0,0,1,.2.31c-.01.308,0,.617,0,.926,0,.225.114.356.286.351s.266-.127.271-.347c0-.256.006-.513,0-.768,0-.139.032-.19.182-.151.344.092.345.086.345.443s0,.722,0,1.083c0,.281.139.432.371.431s.358-.147.363-.417c0-.342.008-.684,0-1.026,0-.175.039-.254.232-.217.733.138,1.475.228,2.217.293.5.044,1,.084,1.5.1.972.026,1.947.053,2.919,0a21.865,21.865,0,0,0,5.581-.87,4.778,4.778,0,0,0,1.486-.719,1.781,1.781,0,0,0,.421-.486c.069.071.042.148.042.214,0,.519-.018,1.039.009,1.557a1.038,1.038,0,0,1-.492.942,5.88,5.88,0,0,1-1.624.8,19.378,19.378,0,0,1-3.914.845,22.784,22.784,0,0,1-2.794.162Q-5076.281-3834.78-5076.828-3834.8Zm-5.473-3.929a6.275,6.275,0,0,1-2.132-.887,1.4,1.4,0,0,1-.137-.108.828.828,0,0,1,.048-1.421,3.529,3.529,0,0,1,.858-.5c.1-.042.149-.022.166.082a1.016,1.016,0,0,0,.474.647,5.789,5.789,0,0,0,1.751.843,20.7,20.7,0,0,0,3.869.775,28.519,28.519,0,0,0,4.237.19,20.156,20.156,0,0,0,4.081-.561,13.592,13.592,0,0,0,1.935-.595c.062-.026.14-.092.2-.024s-.01.137-.044.2a1.907,1.907,0,0,1-.828.724,9.076,9.076,0,0,1-2.379.791,23.289,23.289,0,0,1-3.158.443c-.841.065-1.685.091-2.511.109A27.075,27.075,0,0,1-5082.3-3838.729Zm6.789-1.122A19.521,19.521,0,0,1-5081.4-3841a3.907,3.907,0,0,1-1.4-.828.837.837,0,0,1-.263-.631c.01-.552,0-1.1,0-1.656v-.194c.032,0,.053-.006.056,0a2.73,2.73,0,0,0,1.41,1,13.582,13.582,0,0,0,3.017.754,30.2,30.2,0,0,0,5.066.317,29.237,29.237,0,0,0,4.59-.41c.227-.04.252-.021.253.208,0,.335,0,.67,0,1,0,.28.141.441.364.444s.37-.171.371-.457c0-.393,0-.788,0-1.181a.408.408,0,0,1,.463-.332c.075.026.059.095.059.151,0,.2,0,.406,0,.61,0,.06,0,.119,0,.178.01.212.114.337.277.339s.277-.125.279-.335c.006-.315.01-.632,0-.946a.275.275,0,0,1,.2-.306,4.692,4.692,0,0,0,1.289-.723c.131-.109.2-.274.356-.357q0,1.063,0,2.129a2.069,2.069,0,0,1-1,.9,11.319,11.319,0,0,1-2.985,1,23.135,23.135,0,0,1-3.433.444c-.629.038-1.26.064-1.89.064C-5074.71-3839.815-5075.111-3839.825-5075.512-3839.851Zm.714-3.24a23.961,23.961,0,0,1-5.776-.742,6.119,6.119,0,0,1-1.877-.794,1.5,1.5,0,0,1-.5-.539c-.029-.055-.079-.125-.024-.181s.11,0,.162.021a16.311,16.311,0,0,0,3.19.863,22.93,22.93,0,0,0,2.784.3,24.625,24.625,0,0,0,3.363-.092,21.4,21.4,0,0,0,4.89-.9,5.171,5.171,0,0,0,1.813-.928.886.886,0,0,0,.334-.515c.015-.086.045-.157.156-.106a2.8,2.8,0,0,1,1.109.742,2.437,2.437,0,0,1,.179.3v.393a2.13,2.13,0,0,1-1.143.962,11.982,11.982,0,0,1-3.108.857,28.848,28.848,0,0,1-4.651.363Q-5074.35-3843.079-5074.8-3843.091Zm-7.125-2.643a7.22,7.22,0,0,1-2.369-1.024,1.068,1.068,0,0,1-.506-.978c.026-.5.006-1.011.006-1.516,0-.07,0-.141,0-.211a4.216,4.216,0,0,0,2.455,1.341,18.523,18.523,0,0,0,3.485.606,30.445,30.445,0,0,0,3.539.144,28.872,28.872,0,0,0,4.667-.417c.237-.044.252-.029.254.219,0,.336,0,.671,0,1.006,0,.262.122.412.333.426.236.016.373-.105.4-.376.043-.412.011-.827.02-1.241a.385.385,0,0,1,.442-.348c.088.022.077.1.078.16,0,.256,0,.513,0,.768,0,.227.109.36.276.354s.258-.135.261-.349c0-.315.008-.629,0-.945a.261.261,0,0,1,.2-.291,4.934,4.934,0,0,0,1.024-.522,2.021,2.021,0,0,0,.508-.455c.027-.036.052-.093.1-.079s.046.086.05.136,0,.091,0,.138a10.712,10.712,0,0,0,.008,1.162,1.372,1.372,0,0,1-.808,1.435,10.328,10.328,0,0,1-2.9,1.058,23.8,23.8,0,0,1-3.871.522q-.842.051-1.679.052A22.388,22.388,0,0,1-5081.923-3845.733Zm5.4-2.518a25,25,0,0,1-5.532-.673,6.28,6.28,0,0,1-2.186-.9c-.021-.016-.043-.03-.062-.047a.849.849,0,0,1,.019-1.516,5.9,5.9,0,0,1,2.064-.892,20.064,20.064,0,0,1,3.2-.558,28.137,28.137,0,0,1,3.142-.157,27.306,27.306,0,0,1,5.792.517,9.133,9.133,0,0,1,2.5.836,2.387,2.387,0,0,1,.646.5.732.732,0,0,1,0,1.045,3.417,3.417,0,0,1-1.414.841,15.808,15.808,0,0,1-3.547.785,30.387,30.387,0,0,1-3.775.233Q-5076.1-3848.24-5076.527-3848.252Z" transform="translate(5085 3853.796)" fill="#fff"/>
</svg>
