<svg xmlns="http://www.w3.org/2000/svg" width="20" height="20.096" viewBox="0 0 20 20.096">
  <g id="No_sazi" data-name="No sazi" transform="translate(0 0.001)">
    <rect id="Rectangle_1687" data-name="Rectangle 1687" width="20" height="20" transform="translate(0 0.096)" fill="none"/>
    <path id="Union_71" data-name="Union 71" d="M-5076.169-3782.017a.777.777,0,0,0-.089-.035,1.282,1.282,0,0,1-.668-2.111c.577-.678,1.163-1.349,1.743-2.021.863-1,1.722-2,2.588-2.993a.494.494,0,0,0,.084-.6,3.906,3.906,0,0,1,2.915-5.5,1.305,1.305,0,0,1,.291-.014c.251.017.341.179.224.4a1.23,1.23,0,0,1-.17.236q-.7.814-1.4,1.622a.535.535,0,0,0-.143.48c.138.8.263,1.6.4,2.4a.35.35,0,0,0,.389.328c.818.018,1.636.029,2.453.048a.482.482,0,0,0,.4-.187c.459-.539.924-1.073,1.387-1.608.26-.3.463-.292.7.025,0,.168,0,.338,0,.508-.039.183-.072.366-.115.549a3.892,3.892,0,0,1-4.866,2.823.539.539,0,0,0-.644.193c-1.41,1.65-2.833,3.289-4.247,4.936a1.72,1.72,0,0,1-.8.514Zm.754-2.45a9.61,9.61,0,0,0-.7.831.423.423,0,0,0,0,.359c.043.092.177.143.269.209a.823.823,0,0,0,.241-.112c.247-.273.491-.55.721-.838a.337.337,0,0,0-.069-.456.37.37,0,0,0-.236-.088A.3.3,0,0,0-5075.415-3784.467Zm.357-3.254a2.881,2.881,0,0,0-.334,0v-3.813a1.077,1.077,0,0,0-1.168-1.182q-1.158,0-2.317,0a1.068,1.068,0,0,0-1.147,1.16q0,1.8,0,3.59v.245h-.195c-.78,0-1.559,0-2.337,0-.476,0-.668-.2-.668-.68,0-1.972,0-3.942,0-5.914a.4.4,0,0,1,.154-.329q2.605-2.364,5.207-4.733c.045-.043.095-.085.161-.144l5.36,4.879a12.812,12.812,0,0,0-.74,1.15,4.484,4.484,0,0,0-.181,3.772.243.243,0,0,1-.047.291c-.443.5-.882,1.006-1.311,1.52a.455.455,0,0,1-.366.2A.552.552,0,0,1-5075.058-3787.721Zm-4.249-.013c0-.073-.01-.142-.01-.211v-3.571c0-.379.112-.494.482-.494q1.148,0,2.3,0c.289,0,.426.128.426.411q.006,1.882,0,3.766a.571.571,0,0,1-.014.1Zm-5.183-6.922a4.988,4.988,0,0,0-.426-.508c-.123-.129-.111-.219.022-.338.739-.664,1.473-1.335,2.208-2q2.408-2.19,4.816-4.38a1.276,1.276,0,0,0,.1-.115h.118c.346.323.688.648,1.038.966q2.859,2.607,5.724,5.208c.043.04.084.08.13.124l-1.024.594c-.026-.022-.072-.055-.114-.093q-2.739-2.492-5.478-4.986c-.271-.245-.4-.245-.668,0q-3.05,2.774-6.1,5.552a.3.3,0,0,1-.183.1C-5084.377-3794.535-5084.429-3794.572-5084.489-3794.656Zm11.775-3.792q-.568-.517-1.137-1.035c-.028-.026-.082-.051-.083-.079-.01-.319-.014-.641-.01-.961,0-.017.087-.047.133-.047.3,0,.607,0,.911,0h.548c.1,0,.159.029.159.144q0,1.189,0,2.378c0,.01-.013.019-.029.043C-5072.389-3798.154-5072.551-3798.3-5072.713-3798.448Z" transform="translate(5085.064 3802)" fill="#fff"/>
  </g>
</svg>
