<?xml version="1.0" encoding="utf-8"?>
<svg version="1.1" id="Layer_1" xmlns="http://www.w3.org/2000/svg" x="0px"
     y="0px" viewBox="0 0 122.88 122.89" style="enable-background:new 0 0 122.88 122.89" xml:space="preserve">
  <g><path fill="#fff" d="M121.95,44.43L78.47,0.95c-1.32-1.32-3.55-1.25-4.96,0.17c-0.08,0.08-0.15,0.16-0.22,0.24L61.47,13.17 c-1.13,1.13-1.4,2.77-0.79,4.05l-4.21,26.52c-0.38,0.18-0.75,0.43-1.07,0.75L1.09,98.8c-1.39,1.39-1.47,3.57-0.16,4.88l18.29,18.29 c1.3,1.3,3.48,1.23,4.88-0.16l54.3-54.3l27.42-5.2c1.27,0.52,2.83,0.23,3.92-0.86c0.07-0.07,0.15-0.15,0.21-0.23l11.82-11.82 C123.18,47.97,123.26,45.76,121.95,44.43L121.95,44.43L121.95,44.43z M25.91,110.56L12.34,96.98l45.25-45.25L71.17,65.3 L25.91,110.56L25.91,110.56z M60.68,68.6l-6.38-6.38L40.17,76.34l6.38,6.38L60.68,68.6L60.68,68.6z M75.73,8.47l38.7,38.7 l-6.92,6.92l-38.7-38.7L75.73,8.47L75.73,8.47z"/></g></svg>
