<svg xmlns="http://www.w3.org/2000/svg" width="20" height="20.019" viewBox="0 0 20 20.019">
  <g id="Profile" transform="translate(0)">
    <rect id="Rectangle_1690" data-name="Rectangle 1690" width="20" height="20" transform="translate(0 0.019)" fill="none"/>
    <path id="Icon_metro-profile" data-name="Icon metro-profile" d="M23.07,10.031h-1.4V7.76l-2.887-.048.015,2.319H10.124l.059-2.319L7.356,7.76v2.319l-1.429-.048A1.491,1.491,0,0,0,4.5,11.577V22.4a1.491,1.491,0,0,0,1.429,1.546H23.07A1.491,1.491,0,0,0,24.5,22.4V11.577A1.491,1.491,0,0,0,23.07,10.031ZM19.5,8.485h1.429v3.092H19.5ZM10.213,13.75c.863,0,1.563.995,1.563,2.222s-.7,2.222-1.563,2.222S8.65,17.2,8.65,15.972s.7-2.222,1.563-2.222ZM8.07,8.485H9.5v3.092H8.07ZM7.118,20.812s.169-1.47.554-1.748A5.158,5.158,0,0,1,9.165,18.6s.719.831,1.024.831,1.024-.831,1.024-.831a5.142,5.142,0,0,1,1.494.462c.452.326.565,1.748.565,1.748H7.118Zm14.524-.733H15.213v-.773h6.429Zm0-1.546H15.213V17.76h6.429Zm0-1.546H15.213v-.773h6.429Zm0-1.546H15.213v-.773h6.429Z" transform="translate(-4.499 -7.712)" fill="#fff"/>
  </g>
</svg>
