<svg xmlns="http://www.w3.org/2000/svg" width="20.001" height="20" viewBox="0 0 20.001 20">
  <g id="Shahr_sazi" data-name="Shahr sazi" transform="translate(0.001)">
    <rect id="Rectangle_1683" data-name="Rectangle 1683" width="20" height="20" fill="none"/>
    <path id="Union_72" data-name="Union 72" d="M-5074.437-3732.286c.005-1.842,0-3.682,0-5.523v-5.463c0-.415.147-.53.546-.417q4.271,1.2,8.542,2.4c.3.084.347.15.347.453v8.527c0,.262,0,.263-.257.263h-5.99c-.255,0-.256,0-.256-.265,0-.664,0-1.327,0-1.991,0-.291-.079-.37-.37-.373q-.488-.006-.976,0c-.291,0-.359.069-.36.357,0,.67,0,1.34,0,2.01,0,.256,0,.26-.263.261-.24,0-.482-.01-.721,0h-.033C-5074.394-3732.039-5074.438-3732.114-5074.437-3732.286Zm7.979-3.608c.162.005.24-.058.239-.227,0-.429,0-.857,0-1.286,0-.156-.063-.222-.222-.221q-.634.008-1.268,0c-.157,0-.222.066-.221.222q.006.643,0,1.286c0,.161.074.223.225.223.214,0,.429,0,.643,0l.373,0C-5066.614-3735.9-5066.537-3735.9-5066.459-3735.894Zm-2.627,0c.163,0,.236-.073.235-.237,0-.422,0-.845,0-1.267,0-.151-.06-.229-.221-.227q-.642.006-1.285,0c-.158,0-.226.07-.225.223,0,.214,0,.429,0,.643s0,.416,0,.624c0,.161.065.241.231.241l.633,0Zm-4.126-1.516c0,.214,0,.429,0,.643h0q0,.341,0,.681c0,.116.051.189.173.189.448,0,.9,0,1.344,0a.171.171,0,0,0,.189-.2q0-.662,0-1.325c0-.151-.07-.209-.216-.208q-.643,0-1.286,0h0C-5073.16-3737.627-5073.213-3737.554-5073.212-3737.411Zm2.843-3.452a.189.189,0,0,0-.213.218c0,.429,0,.858,0,1.286,0,.166.079.231.243.226.2-.006.4,0,.6,0,.221,0,.441,0,.662,0,.145,0,.222-.057.222-.205v-1.326c0-.138-.079-.2-.21-.2h-1.306Zm-2.843.211q0,.653,0,1.305c0,.146.058.216.208.214q.643-.006,1.287,0c.146,0,.217-.061.214-.21,0-.215,0-.427,0-.642s0-.443,0-.664a.185.185,0,0,0-.212-.214c-.429,0-.856,0-1.285,0h0C-5073.151-3740.865-5073.212-3740.8-5073.212-3740.653Zm6.8,1.519c.12,0,.184-.057.184-.176,0-.456,0-.91,0-1.366a.168.168,0,0,0-.194-.187h-1.306c-.146,0-.212.072-.209.218.005.208,0,.416,0,.624,0,.227,0,.454,0,.681,0,.137.057.206.2.206h1.325Zm-15.421,7.09c-.252,0-.254,0-.254-.286q0-1.214,0-2.428c0-.342-.082-.429-.407-.43h-.877c-.362,0-.423.064-.423.447q0,1.192,0,2.385c0,.312,0,.314-.291.312-.306,0-.611-.008-.917-.013v-18.759a.48.48,0,0,1,.414-.184q4.292.005,8.583,0c.324,0,.424.1.424.447q0,9.123,0,18.248c0,.2-.058.262-.244.262C-5077.823-3732.046-5079.825-3732.044-5081.829-3732.044Zm4.788-4.761c.16,0,.24-.068.239-.248q-.006-.689,0-1.378c0-.171-.07-.234-.225-.231-.422.005-.843.005-1.266,0-.16,0-.222.075-.218.24,0,.23,0,.459,0,.689s.006.446,0,.669c-.008.193.077.26.245.259l.554,0Zm-6.75-1.649q0,.712,0,1.422c0,.162.074.226.216.226h1.286c.144,0,.212-.075.208-.234,0-.229,0-.461,0-.69s0-.459,0-.689c0-.166-.059-.242-.218-.241q-.643.008-1.286,0h0C-5083.728-3738.662-5083.793-3738.6-5083.792-3738.454Zm2.629.034q.005.678,0,1.358c0,.165.063.253.215.253q.653,0,1.306,0a.191.191,0,0,0,.209-.216q0-.71,0-1.422c0-.144-.066-.217-.206-.214-.221,0-.441,0-.662,0s-.416.005-.623,0h-.017C-5081.092-3738.662-5081.165-3738.6-5081.163-3738.42Zm4.125-1.857c.166,0,.24-.064.235-.245,0-.23,0-.459,0-.689s0-.459,0-.69c0-.152-.051-.235-.2-.233-.429,0-.857,0-1.286,0-.156,0-.221.078-.218.245,0,.453,0,.906,0,1.359,0,.193.077.257.248.254q.307-.005.614,0T-5077.037-3740.276Zm-6.756-1.632q0,.7,0,1.4c0,.155.058.231.209.23q.643-.005,1.286,0c.161,0,.218-.082.214-.245,0-.223,0-.447,0-.67s-.005-.459,0-.689c0-.179-.069-.254-.232-.253q-.634,0-1.267,0C-5083.729-3742.136-5083.793-3742.066-5083.793-3741.909Zm4.14,1.631c.156,0,.224-.082.222-.245,0-.223,0-.446,0-.669s0-.459,0-.689c0-.175-.069-.255-.233-.254q-.634,0-1.266,0c-.166,0-.233.082-.232.255q0,.68,0,1.358c0,.166.068.244.224.244l.642,0Zm2.634-3.472c.146.005.218-.052.217-.216,0-.467,0-.933,0-1.4,0-.146-.056-.22-.2-.218q-.663,0-1.324,0c-.127,0-.19.06-.188.2,0,.467,0,.933,0,1.4,0,.174.074.236.227.232.208-.006.415,0,.623,0l.4,0C-5077.183-3743.753-5077.1-3743.753-5077.019-3743.75Zm-4.144-1.608c0,.23,0,.459,0,.69s0,.445,0,.669c-.005.177.065.251.232.249q.634-.008,1.268,0c.168,0,.233-.079.232-.251,0-.447,0-.892,0-1.339,0-.163-.055-.246-.216-.245-.435,0-.87,0-1.306,0C-5081.1-3745.585-5081.167-3745.518-5081.163-3745.358Zm-1.122,1.607c.138,0,.2-.068.2-.216,0-.236,0-.474,0-.71s0-.473,0-.711c0-.13-.055-.2-.175-.2h-1.363a.146.146,0,0,0-.126.046.168.168,0,0,0-.042.135q0,.731,0,1.461c0,.129.06.188.183.188l.662,0Zm2.619-3.471c.167.005.236-.075.235-.25,0-.447,0-.893,0-1.34,0-.167-.065-.244-.222-.242q-.643,0-1.288,0c-.153,0-.225.068-.223.239q.005.682,0,1.36c0,.174.075.236.228.234.214-.005.429,0,.645,0h0l.384,0C-5079.826-3747.226-5079.746-3747.225-5079.666-3747.223Zm2.649,0c.146,0,.216-.055.214-.217,0-.467,0-.933,0-1.4,0-.148-.056-.218-.2-.217-.441,0-.882,0-1.323,0-.13,0-.187.061-.187.2,0,.466,0,.933,0,1.4,0,.157.061.231.209.229.214,0,.428,0,.642,0h0l.4,0C-5077.182-3747.226-5077.1-3747.225-5077.017-3747.223Zm-6.775-1.619c0,.467,0,.935,0,1.4,0,.163.071.221.217.217.208-.006.416,0,.625,0s.441,0,.662,0c.137,0,.206-.062.206-.213q0-.7,0-1.4c0-.149-.061-.216-.2-.216-.435,0-.872,0-1.307,0h0C-5083.73-3749.055-5083.793-3748.99-5083.792-3748.842Z" transform="translate(5085 3751.331)" fill="#fff"/>
  </g>
</svg>
