<?xml version="1.0" encoding="utf-8"?>
<!-- Generator: Adobe Illustrator 24.1.2, SVG Export Plug-In . SVG Version: 6.00 Build 0)  -->
<svg version="1.1" id="Layer_1" xmlns="http://www.w3.org/2000/svg" xmlns:xlink="http://www.w3.org/1999/xlink" x="0px" y="0px"
	 viewBox="0 0 300 300" style="enable-background:new 0 0 300 300;" xml:space="preserve">
<style type="text/css">
	.st0{fill:#00B22D;}
</style>
<path class="st0" d="M96.4,7.5c-49.1,0-88.9,39.8-88.9,89v107.1c0,0,0,0,0,0.1c0,49.1,39.8,88.9,88.9,88.9h107.1c0,0,0,0,0.1,0
	c49.1,0,88.9-39.8,88.9-88.9V96.5c0,0,0,0,0-0.1c0-49.1-39.8-88.9-89-88.9L96.4,7.5C96.4,7.5,96.4,7.5,96.4,7.5z M75,150l75-75
	l21.3,21.3l-40.1,40H225v27.4h-93.8l40.1,40.1L150,225L75,150z"/>
</svg>
