<svg id="Capa_1" enable-background="new 0 0 512 512" height="512" viewBox="0 0 512 512" width="512" xmlns="http://www.w3.org/2000/svg"><g><path d="m475.43 146.29v350.71h-233.43l14-350.71z" fill="#f0f7ff"/><path d="m365.71 146.29h109.72v350.71h-109.72z" fill="#d7e9fc"/><path d="m316.286 206.571h30v30h-30z" fill="#00b3ff"/><path d="m385.143 206.571h30v30h-30z" fill="#3a80e8"/><path d="m316.286 275.429h30v30h-30z" fill="#00b3ff"/><path d="m385.143 275.429h30v30h-30z" fill="#3a80e8"/><path d="m316.286 344.286h30v30h-30z" fill="#00b3ff"/><path d="m385.143 344.286h30v30h-30z" fill="#3a80e8"/><path d="m73.14 0h146.29v103.62h-146.29z" fill="#f0f7ff"/><path d="m146.29 0h73.14v103.62h-73.14z" fill="#d7e9fc"/><path d="m316.286 413.143h30v30h-30z" fill="#00b3ff"/><path d="m385.143 413.143h30v30h-30z" fill="#3a80e8"/><path d="m256 73.14v423.86h-219.43v-387.29l109.72-18.29z" fill="#00b3ff"/><path d="m256 73.14v423.86h-109.71v-405.58z" fill="#3a80e8"/><path d="m165.714 137.714h30v30h-30z" fill="#00b3ff"/><path d="m165.714 206.571h30v30h-30z" fill="#00b3ff"/><path d="m96.857 206.571h30v30h-30z" fill="#00f6fe"/><path d="m165.714 275.429h30v30h-30z" fill="#00b3ff"/><path d="m96.857 275.429h30v30h-30z" fill="#00f6fe"/><path d="m165.714 344.286h30v30h-30z" fill="#00b3ff"/><path d="m96.857 344.286h30v30h-30z" fill="#00f6fe"/><path d="m96.86 413.143h98.85v83.857h-98.85z" fill="#00f6fe"/><path d="m146.29 413.143h49.42v83.857h-49.42z" fill="#00b3ff"/><path d="m0 482h512v30h-512z" fill="#9dd867"/><path d="m256 482h256v30h-256z" fill="#77c080"/></g></svg>