<svg height="512pt" viewBox="-94 0 512 512" width="512pt" xmlns="http://www.w3.org/2000/svg">
  <path d="m80.902344 61.214844v208.570312l242.183594-103.785156zm0 0" fill="#ff641a"/>
  <path d="m60 75h30v422h-30zm0 0" fill="#474747"/>
  <path d="m75 75h15v422h-15zm0 0" fill="#202020"/>
  <path
    d="m75 0c-24.902344 0-45 20.097656-45 45 0 24.898438 20.097656 45 45 45s45-20.101562 45-45c0-24.902344-20.097656-45-45-45zm0 0"
    fill="#202020"/>
  <path d="m75 90v-90c24.902344 0 45 20.097656 45 45 0 24.898438-20.097656 45-45 45zm0 0" fill="#202020"/>
  <path d="m0 482h150v30h-150zm0 0" fill="#000"/>
  <path d="m75 482h75v30h-75zm0 0" fill="#888"/>
</svg>
