<svg xmlns="http://www.w3.org/2000/svg" xmlns:xlink="http://www.w3.org/1999/xlink" version="1.1" width="80" height="80" viewBox="0 0 256 256" xml:space="preserve">

<defs>
</defs>
<g style="stroke: none; stroke-width: 0; stroke-dasharray: none; stroke-linecap: butt; stroke-linejoin: miter; stroke-miterlimit: 10; fill: none; fill-rule: nonzero; opacity: 1;" transform="translate(1.4065934065934016 1.4065934065934016) scale(2.81 2.81)" >
	<path d="M 50.643 20.856 c -0.793 0 -1.559 -0.379 -2.037 -1.05 l -6.748 -9.481 v 8.031 c 0 1.381 -1.119 2.5 -2.5 2.5 s -2.5 -1.119 -2.5 -2.5 V 2.501 c 0 -1.087 0.703 -2.05 1.739 -2.381 c 1.034 -0.333 2.166 0.046 2.797 0.932 l 6.748 9.481 V 2.501 c 0 -1.381 1.119 -2.5 2.5 -2.5 s 2.5 1.119 2.5 2.5 v 15.855 c 0 1.087 -0.703 2.05 -1.739 2.381 C 51.152 20.817 50.896 20.856 50.643 20.856 z" style="stroke: none; stroke-width: 1; stroke-dasharray: none; stroke-linecap: butt; stroke-linejoin: miter; stroke-miterlimit: 10; fill: rgb(0,0,0); fill-rule: nonzero; opacity: 1;" transform=" matrix(1 0 0 1 0 0) " stroke-linecap="round" />
	<path d="M 70.134 84.277 c -0.874 0 -1.76 -0.196 -2.595 -0.6 L 45.402 72.977 c -0.257 -0.124 -0.55 -0.123 -0.806 0 L 22.461 83.678 c -2.391 1.154 -5.192 0.608 -6.973 -1.36 c -1.78 -1.968 -2.044 -4.811 -0.656 -7.073 l 25.117 -40.948 c 1.086 -1.77 2.974 -2.827 5.051 -2.827 c 2.077 0 3.965 1.057 5.051 2.827 l 25.118 40.948 c 1.388 2.263 1.124 5.105 -0.656 7.073 C 73.353 83.598 71.762 84.277 70.134 84.277 z M 45 67.881 c 0.88 0 1.759 0.198 2.578 0.594 l 22.137 10.701 c 0.516 0.249 0.877 0.022 1.09 -0.213 c 0.212 -0.234 0.401 -0.616 0.103 -1.104 L 45.789 36.911 c -0.236 -0.384 -0.596 -0.441 -0.789 -0.441 s -0.553 0.057 -0.789 0.441 L 19.093 77.859 c -0.299 0.487 -0.109 0.869 0.103 1.104 c 0.213 0.235 0.572 0.462 1.089 0.213 l 22.137 -10.701 C 43.241 68.079 44.121 67.881 45 67.881 z" style="stroke: none; stroke-width: 1; stroke-dasharray: none; stroke-linecap: butt; stroke-linejoin: miter; stroke-miterlimit: 10; fill: rgb(0,0,0); fill-rule: nonzero; opacity: 1;" transform=" matrix(1 0 0 1 0 0) " stroke-linecap="round" />
	<path d="M 45 90 c -2.527 0 -5.061 -0.229 -7.528 -0.681 c -1.358 -0.248 -2.258 -1.551 -2.009 -2.909 c 0.248 -1.358 1.556 -2.262 2.909 -2.009 c 4.299 0.787 8.818 0.795 13.124 0.023 c 1.351 -0.244 2.657 0.66 2.901 2.02 c 0.243 1.358 -0.661 2.658 -2.02 2.901 C 49.956 89.78 47.475 90 45 90 z" style="stroke: none; stroke-width: 1; stroke-dasharray: none; stroke-linecap: butt; stroke-linejoin: miter; stroke-miterlimit: 10; fill: rgb(0,0,0); fill-rule: nonzero; opacity: 1;" transform=" matrix(1 0 0 1 0 0) " stroke-linecap="round" />
	<path d="M 81.215 65.591 c -0.313 0 -0.63 -0.06 -0.937 -0.184 c -1.279 -0.519 -1.896 -1.976 -1.379 -3.256 c 1.763 -4.353 2.656 -8.964 2.656 -13.706 c 0 -13.845 -7.675 -26.343 -20.03 -32.616 c -1.231 -0.625 -1.723 -2.13 -1.098 -3.361 c 0.626 -1.231 2.133 -1.721 3.361 -1.097 c 14.043 7.13 22.766 21.336 22.766 37.074 c 0 5.388 -1.017 10.631 -3.021 15.583 C 83.139 65 82.203 65.591 81.215 65.591 z" style="stroke: none; stroke-width: 1; stroke-dasharray: none; stroke-linecap: butt; stroke-linejoin: miter; stroke-miterlimit: 10; fill: rgb(0,0,0); fill-rule: nonzero; opacity: 1;" transform=" matrix(1 0 0 1 0 0) " stroke-linecap="round" />
	<path d="M 8.393 64.583 c -1.014 0 -1.968 -0.622 -2.343 -1.628 c -1.728 -4.637 -2.604 -9.518 -2.604 -14.51 c 0 -14.976 8.112 -28.854 21.169 -36.218 c 1.204 -0.68 2.728 -0.253 3.406 0.95 s 0.253 2.728 -0.95 3.406 C 15.582 23.062 8.446 35.27 8.446 48.446 c 0 4.393 0.771 8.687 2.29 12.764 c 0.482 1.294 -0.176 2.733 -1.47 3.216 C 8.978 64.532 8.683 64.583 8.393 64.583 z" style="stroke: none; stroke-width: 1; stroke-dasharray: none; stroke-linecap: butt; stroke-linejoin: miter; stroke-miterlimit: 10; fill: rgb(0,0,0); fill-rule: nonzero; opacity: 1;" transform=" matrix(1 0 0 1 0 0) " stroke-linecap="round" />
</g>
</svg>
