<svg version="1.1" id="Layer_1" xmlns="http://www.w3.org/2000/svg" xmlns:xlink="http://www.w3.org/1999/xlink" x="0px" y="0px"
	 viewBox="0 0 512 512" style="enable-background:new 0 0 512 512;" xml:space="preserve">
<g>
	<g>
		<g>
			<path d="M128.011,320h-64c-5.888,0-10.667,4.779-10.667,10.667v64c0,5.888,4.779,10.667,10.667,10.667h64
				c5.888,0,10.667-4.779,10.667-10.667v-64C138.677,324.779,133.899,320,128.011,320z M117.344,384H74.677v-42.667h42.667V384z"/>
			<path d="M128.011,192h-64c-5.888,0-10.667,4.779-10.667,10.667v64c0,5.888,4.779,10.667,10.667,10.667h64
				c5.888,0,10.667-4.779,10.667-10.667v-64C138.677,196.779,133.899,192,128.011,192z M117.344,256H74.677v-42.667h42.667V256z"/>
			<path d="M496.395,150.997L261.728,1.664c-3.499-2.219-7.957-2.219-11.456,0L15.605,150.997c-3.051,1.963-4.928,5.355-4.928,9.003
				v341.333c0,5.888,4.779,10.667,10.667,10.667h469.333c5.888,0,10.667-4.779,10.645-10.667V160
				C501.344,156.352,499.467,152.96,496.395,150.997z M309.344,490.667H202.677V416c0-29.397,23.936-53.333,53.333-53.333
				s53.333,23.936,53.333,53.333V490.667z M480.011,490.667H330.677V416c0-41.173-33.493-74.667-74.667-74.667
				S181.344,374.827,181.344,416v74.667H32.011V165.845l224-142.549l224,142.549V490.667z"/>
			<path d="M202.677,202.667V288c0,5.888,4.779,10.667,10.667,10.667h85.333c5.888,0,10.667-4.779,10.667-10.667v-85.333
				c0-5.888-4.779-10.667-10.667-10.667h-85.333C207.456,192,202.677,196.779,202.677,202.667z M224.011,213.333h64v64h-64V213.333z
				"/>
			<path d="M384.011,277.333h64c5.888,0,10.667-4.779,10.667-10.667v-64c0-5.888-4.779-10.667-10.667-10.667h-64
				c-5.888,0-10.667,4.779-10.667,10.667v64C373.344,272.555,378.123,277.333,384.011,277.333z M394.677,213.333h42.667V256h-42.667
				V213.333z"/>
			<path d="M224.011,117.333c0,17.643,14.379,32,32,32c17.643,0,32-14.357,32-32c0-17.643-14.336-32-32-32
				C238.389,85.333,224.011,99.691,224.011,117.333z M266.677,117.333c0,5.888-4.779,10.667-10.667,10.667
				s-10.667-4.779-10.667-10.667s4.779-10.667,10.667-10.667S266.677,111.445,266.677,117.333z"/>
			<path d="M384.011,405.333h64c5.888,0,10.667-4.779,10.667-10.667v-64c0-5.888-4.779-10.667-10.667-10.667h-64
				c-5.888,0-10.667,4.779-10.667,10.667v64C373.344,400.555,378.123,405.333,384.011,405.333z M394.677,341.333h42.667V384h-42.667
				V341.333z"/>
		</g>
	</g>
</g>
<g>
</g>
<g>
</g>
<g>
</g>
<g>
</g>
<g>
</g>
<g>
</g>
<g>
</g>
<g>
</g>
<g>
</g>
<g>
</g>
<g>
</g>
<g>
</g>
<g>
</g>
<g>
</g>
<g>
</g>
</svg>
