<?xml version="1.0" encoding="utf-8"?>
<!-- Svg Vector Icons : http://www.onlinewebfonts.com/icon -->
<!DOCTYPE svg PUBLIC "-//W3C//DTD SVG 1.1//EN" "http://www.w3.org/Graphics/SVG/1.1/DTD/svg11.dtd">
<svg version="1.1" xmlns="http://www.w3.org/2000/svg" xmlns:xlink="http://www.w3.org/1999/xlink" x="0px" y="0px" viewBox="0 0 1000 1000" enable-background="new 0 0 1000 1000" xml:space="preserve">
<metadata> Svg Vector Icons : http://www.onlinewebfonts.com/icon </metadata>
<g><path d="M950.8,10c-21.6,0-39.2,17.6-39.2,39.2c0,6.1,1.2,12,3.7,17.1L778.1,264.8c-1.2-0.1-2.4,0-3.7,0c-9.9,0-18.8,3.8-25.7,9.8l-308.1-96.8c-3.9-17.6-19.8-30.6-38.6-30.6c-21.6,0-39.2,17.6-39.2,39.2c0,18.3,12.5,33.6,29.4,38L491.4,571c-2.6,2.8-5,5.7-6.7,9.2l-265.8,15.9c-7-10.7-18.7-17.8-32.5-17.8c-21.6,0-39.2,17.6-39.2,39.2c0,8.8,3.1,16.8,8,23.3L43.7,912.2C24.7,914.9,10,931,10,950.8c0,21.6,17.6,39.2,39.2,39.2c21.6,0,39.2-17.6,39.2-39.2c0-8.8-3.1-16.8-8-23.3l111.5-271.3c12.9-1.8,23.7-9.6,29.4-20.8l265.8-15.9c7,10.7,18.7,17.8,32.5,17.8c21.6,0,39.2-17.6,39.2-39.2c0-18.3-12.5-33.6-29.4-38l-98-343.6l304.4,96.2c3.9,17.6,19.8,30.6,38.6,30.6c21.7,0,39.2-17.6,39.2-39.2c0-6.1-1.2-12-3.7-17.1L947.1,88.4c1.2,0.1,2.4,0,3.7,0c21.7,0,39.2-17.6,39.2-39.2C990,27.6,972.5,10,950.8,10z"/></g>
</svg>